<svg width="1622" height="631" viewBox="0 0 1622 631" fill="none" xmlns="http://www.w3.org/2000/svg">
<path d="M467.327 106.764C223.5 144.302 84.9686 71.1757 0 0V480.436C100.603 467.495 253.773 511.71 317.782 535.435C433.5 583.964 500.647 572.709 634 546.545C789.147 498.016 878.575 520.877 941.452 520.877C1033.9 533.818 1126.12 519.798 1160.67 511.171C1327.89 460.701 1368.56 376.908 1367.99 341.32C1367.99 202.851 1283.03 195.194 1240.54 208.674C1104.59 244.909 1001.5 246.419 966.942 242.644C945.984 245.34 884.013 225.821 803.803 126.175C723.592 26.5291 600 86.3377 467.327 106.764Z" fill="white"/>
</svg>
