<svg width="235" height="28" viewBox="0 0 235 28" fill="none" xmlns="http://www.w3.org/2000/svg">
<g clip-path="url(#clip0_622_2406)">
<mask id="mask0_622_2406" style="mask-type:luminance" maskUnits="userSpaceOnUse" x="-5" y="-9" width="243" height="46">
<path d="M-4.34247 -8.73382H237.344V36.4775H-4.34247V-8.73382Z" fill="white"/>
</mask>
<g mask="url(#mask0_622_2406)">
<path d="M0.234314 3.58221H21.055V24.4756H6.89217C6.89217 24.4756 1.38444 24.4153 0.234314 18.316L0.234314 3.58221Z" fill="#FFDE00"/>
<path d="M10.6447 7.26579H17.6656V14.0288H14.5183V10.2247H10.6447V7.26579Z" fill="#042955"/>
<path d="M32.0476 15.1194V18.7797H36.1925C36.1925 18.7797 38.0955 18.5419 38.2308 16.797C38.2308 16.797 38.1628 15.1194 36.4641 15.1194H32.0476ZM32.0476 9.6283V12.7804H36.3281C36.3281 12.7804 37.8233 12.441 37.7553 11.2044C37.7553 11.2044 37.6193 9.6283 36.1925 9.6283H32.0476ZM37.6532 7.08621C40.609 7.59409 40.609 10.645 40.609 10.645C41.0166 12.2717 39.08 14.0008 39.08 14.0008C41.0166 14.509 41.0166 17.2542 41.0166 17.2542C41.2205 20.8136 37.1438 21.4233 37.1438 21.4233H28.9899V7.08621H37.6532Z" fill="#042955"/>
<path d="M49.442 11.2044L47.4036 16.001H51.4806L49.442 11.2044ZM47.8792 7.08621H50.9368L56.5765 21.4233H53.4509L52.296 18.4753H46.7242L45.365 21.4233H42.3077L47.8792 7.08621Z" fill="#042955"/>
<path d="M227.367 11.1039L225.329 15.8999H229.406L227.367 11.1039ZM225.805 6.98514H228.863L234.502 21.3223H231.376L230.221 18.3736H224.65L223.291 21.3223H220.234L225.805 6.98514Z" fill="#042955"/>
<path d="M86.4055 16.9498L88.2399 18.7794C88.2399 18.7794 86.6091 21.4233 82.3962 21.4233C82.3962 21.4233 75.058 22.4062 74.4466 14.2546C74.4466 14.2546 73.9704 6.91623 82.3962 6.57774C82.3962 6.57774 86.065 6.44211 87.8997 9.01795L85.8614 10.9159C85.8614 10.9159 84.7913 9.32298 82.1416 9.32298C82.1416 9.32298 78.0135 9.25727 77.7081 14.0183C77.7081 14.0183 77.5042 18.5256 82.2431 18.8813C82.2431 18.8813 85.0638 19.0841 86.4055 16.9498Z" fill="#042955"/>
<path d="M145.367 16.9493L147.202 18.7789C147.202 18.7789 145.57 21.4228 141.358 21.4228C141.358 21.4228 134.019 22.406 133.408 14.2547C133.408 14.2547 132.932 6.91631 141.358 6.57752C141.358 6.57752 145.027 6.44219 146.862 9.01803L144.823 10.916C144.823 10.916 143.752 9.32306 141.103 9.32306C141.103 9.32306 136.975 9.25705 136.669 14.0184C136.669 14.0184 136.466 18.5254 141.205 18.8807C141.205 18.8807 144.026 19.0842 145.367 16.9493Z" fill="#042955"/>
<path d="M200.646 16.9493L202.481 18.7789C202.481 18.7789 200.85 21.4228 196.637 21.4228C196.637 21.4228 189.299 22.406 188.687 14.2547C188.687 14.2547 188.212 6.91631 196.637 6.57752C196.637 6.57752 200.307 6.44219 202.141 9.01803L200.103 10.916C200.103 10.916 199.033 9.32306 196.383 9.32306C196.383 9.32306 192.254 9.25705 191.949 14.0184C191.949 14.0184 191.746 18.5254 196.484 18.8807C196.484 18.8807 199.305 19.0842 200.646 16.9493Z" fill="#042955"/>
<path d="M105.079 14.1222C105.079 9.9088 101.656 6.49293 97.4322 6.49293C93.2088 6.49293 89.7856 9.9088 89.7856 14.1222C89.7856 18.3356 93.2088 21.7515 97.4322 21.7515C101.656 21.7515 105.079 18.3356 105.079 14.1222ZM97.4322 18.901C94.7867 18.901 92.642 16.7619 92.642 14.1222C92.642 11.4828 94.7867 9.34306 97.4322 9.34306C100.078 9.34306 102.222 11.4828 102.222 14.1222C102.222 16.7619 100.078 18.901 97.4322 18.901Z" fill="#042955"/>
<path d="M169.168 21.4614H166.366V6.84851H169.168V21.4614Z" fill="#042955"/>
<path d="M130.439 21.4614H127.636V6.84851H130.439V21.4614Z" fill="#042955"/>
<path d="M116.221 9.59405V14.0187H119.839C119.839 14.0187 121.933 13.6121 121.93 11.8064C121.93 11.8064 122.081 9.69562 120.093 9.59405H116.221ZM113.367 21.4614V6.84851H120.705C120.705 6.84851 125.037 7.40762 124.833 11.7292C124.833 11.7292 125.189 15.4911 120.807 16.5593H116.221V21.4614H113.367Z" fill="#042955"/>
<path d="M150.058 6.84803V21.4609H152.963V15.3897H159.435V21.4609H162.238V6.84803H160.352C160.352 6.84803 159.435 6.89896 159.435 7.86498V12.4407H152.861V6.84803H150.058Z" fill="#042955"/>
<path d="M205.502 6.84803V21.4609H208.407V15.3897H214.879V21.4609H217.683V6.84803H215.796C215.796 6.84803 214.879 6.89896 214.879 7.86498V12.4407H208.306V6.84803H205.502Z" fill="#042955"/>
<path d="M58.9035 21.4231V7.08601H62.2161C62.2161 7.08601 62.8786 7.23822 63.2351 7.89951L68.7392 16.9496V7.08601H71.5416V21.4231H68.5861C68.5861 21.4231 68.0764 21.4738 67.6178 20.7121L62.0629 11.6111V21.4231H58.9035Z" fill="#042955"/>
<path d="M173.112 21.4603V7.12255H176.424C176.424 7.12255 177.087 7.27506 177.444 7.93545L182.947 16.9859V7.12255H185.751V21.4603H182.794C182.794 21.4603 182.285 21.51 181.826 20.748L176.272 11.6473V21.4603H173.112Z" fill="#042955"/>
</g>
</g>
<defs>
<clipPath id="clip0_622_2406">
<rect width="234.752" height="28.0002" fill="white"/>
</clipPath>
</defs>
</svg>
