<svg width="249" height="28" viewBox="0 0 249 28" fill="none" xmlns="http://www.w3.org/2000/svg">
<path d="M14.2926 9.21953C14.1649 10.0455 13.85 10.7848 13.348 11.4374C12.8506 12.0854 12.2049 12.5531 11.4108 12.8406C12.7433 13.3198 13.4096 14.3032 13.4096 15.7909C13.4096 16.0784 13.3822 16.3932 13.3275 16.7355C13.0628 18.2688 12.4125 19.3709 11.3766 20.0417C10.7332 20.4706 9.97107 20.7695 9.09033 20.9384C8.30086 21.089 7.39958 21.1643 6.3865 21.1643C4.41054 21.1643 2.65135 21.0205 1.10891 20.733L3.55262 5.3315C4.20519 5.20829 5.00835 5.10333 5.96211 5.01662C6.87023 4.92992 7.78519 4.88657 8.707 4.88657C9.08577 4.88657 9.47594 4.89798 9.87752 4.92079C10.74 4.98012 11.4724 5.11018 12.0748 5.31097C12.7867 5.55283 13.3343 5.90421 13.7176 6.36512C14.1466 6.88535 14.3611 7.5516 14.3611 8.36389C14.3611 8.65595 14.3383 8.94117 14.2926 9.21953ZM11.2055 8.9868C11.2055 8.46201 11.0343 8.07868 10.6921 7.83682C10.5506 7.7273 10.3453 7.64059 10.076 7.5767C9.81591 7.51282 9.55352 7.47174 9.28884 7.45349C9.05154 7.43524 8.72526 7.42611 8.30999 7.42611C7.67111 7.42611 7.01854 7.46946 6.35228 7.55617L5.70199 11.6769H7.74184C8.52675 11.6769 9.15422 11.6016 9.62425 11.451C10.0532 11.3141 10.3909 11.0928 10.6373 10.7871C10.8838 10.4813 11.0594 10.0524 11.1644 9.50018C11.1918 9.31765 11.2055 9.14652 11.2055 8.9868ZM7.3722 14.0248H5.31866L4.61362 18.4605C5.27988 18.5517 5.98264 18.5974 6.72192 18.5974C7.53877 18.5974 8.18906 18.5221 8.67278 18.3715C9.11087 18.23 9.4554 18.0018 9.70639 17.687C9.95738 17.3721 10.1354 16.9294 10.2403 16.359C10.2723 16.1856 10.2882 16.0008 10.2882 15.8045C10.2882 15.2296 10.1057 14.8006 9.74062 14.5177C9.59459 14.3945 9.38467 14.2941 9.11087 14.2165C8.68647 14.0887 8.10691 14.0248 7.3722 14.0248ZM26.3618 12.5668L25.5473 17.7212C25.4286 18.4741 25.2735 19.2454 25.0818 20.0348C23.6945 20.7878 21.8555 21.1643 19.5646 21.1643C18.1637 21.1643 17.1346 20.9247 16.4775 20.4455C15.8203 19.9618 15.4918 19.2225 15.4918 18.2277C15.4918 17.9357 15.5192 17.6185 15.5739 17.2763C15.7519 16.1628 16.1512 15.2866 16.7718 14.6477C17.397 14.0043 18.3028 13.589 19.4893 13.4019C20.3153 13.2741 21.6113 13.1715 23.3774 13.0939C23.4093 12.9205 23.4253 12.7379 23.4253 12.5463C23.4253 12.0352 23.2701 11.6587 22.9598 11.4168C22.6541 11.175 22.1681 11.054 21.5018 11.054C20.2788 11.054 18.8573 11.159 17.2373 11.3689L17.3468 9.11001C19.195 8.7997 20.7808 8.64454 22.1042 8.64454C23.1401 8.64454 23.9912 8.77004 24.6574 9.02103C25.8256 9.43173 26.4189 10.3193 26.4371 11.6838C26.4371 11.9302 26.412 12.2245 26.3618 12.5668ZM20.256 15.3528C19.8818 15.4395 19.5806 15.5467 19.3524 15.6745C18.9189 15.9209 18.6383 16.4411 18.5105 17.2352C18.4877 17.3812 18.4763 17.5204 18.4763 17.6527C18.4763 18.0908 18.62 18.4011 18.9075 18.5837C19.195 18.7662 19.6513 18.8575 20.2765 18.8575C21.1801 18.8575 21.9011 18.748 22.4396 18.5289C22.5719 18.0132 22.6837 17.4679 22.775 16.8929L23.0625 15.079L22.6107 15.1063L22.111 15.1269C21.8418 15.1451 21.6889 15.1565 21.6524 15.1611C21.4242 15.1748 21.2577 15.1908 21.1527 15.209C20.8196 15.2455 20.5207 15.2934 20.256 15.3528ZM32.2023 13.0391L30.9428 21H27.9788L29.3889 12.0876C29.5121 11.289 29.6696 10.5178 29.8612 9.77399C31.358 9.02103 33.1994 8.64454 35.3853 8.64454C36.6676 8.64454 37.6442 8.8248 38.315 9.18531C38.7759 9.44086 39.1022 9.76943 39.2938 10.171C39.4901 10.5726 39.5859 11.0586 39.5813 11.629C39.5813 12.0078 39.5288 12.544 39.4239 13.2376L38.1918 21H35.221L36.4052 13.5114C36.4691 13.1053 36.501 12.7744 36.501 12.5189C36.501 12.0032 36.3504 11.6359 36.0492 11.4168C35.7617 11.1978 35.221 11.0837 34.4269 11.0746C33.6603 11.0746 33.0305 11.1841 32.5377 11.4031C32.4054 11.9188 32.2935 12.4641 32.2023 13.0391ZM49.4786 18.4057L49.376 20.6988C48.1119 21.0091 46.7862 21.1643 45.3989 21.1643C44.249 21.1643 43.3614 20.911 42.7362 20.4045C42.4533 20.1717 42.2205 19.882 42.038 19.5351C41.7185 18.9008 41.5588 18.1022 41.5588 17.1393C41.5588 16.5005 41.6318 15.7178 41.7779 14.7915C41.8783 14.1708 41.9832 13.6369 42.0927 13.1897C42.3711 12.1082 42.7179 11.2776 43.1332 10.6981C43.6078 10.009 44.2398 9.49562 45.0293 9.15793C45.8233 8.81567 46.8364 8.64454 48.0685 8.64454C49.2048 8.64454 50.2453 8.7997 51.1899 9.11001L50.6012 11.3415C49.6749 11.1544 48.9675 11.0609 48.4792 11.0609C47.7445 11.0609 47.1787 11.1202 46.7817 11.2388C46.3208 11.3803 45.9785 11.5834 45.7549 11.8481C45.4993 12.1401 45.3031 12.5234 45.1662 12.998C45.0841 13.2947 45.0179 13.5616 44.9677 13.7989C44.9084 14.1001 44.849 14.431 44.7897 14.7915C44.6437 15.7315 44.5707 16.3887 44.5707 16.7629C44.5707 17.2329 44.6483 17.6003 44.8034 17.8649C45.1183 18.4171 45.9488 18.6932 47.295 18.6932C47.7879 18.6932 48.5158 18.5974 49.4786 18.4057ZM56.4505 21.1643C54.8351 21.1643 53.6691 20.854 52.9527 20.2333C52.2408 19.6127 51.8848 18.5837 51.8848 17.1462C51.8848 16.4936 51.9533 15.7452 52.0902 14.901C52.2773 13.7464 52.5237 12.7813 52.8295 12.0055C53.1352 11.2297 53.5436 10.5863 54.0547 10.0752C54.5613 9.5732 55.1659 9.21041 55.8687 8.9868C56.5715 8.75863 57.4271 8.64454 58.4356 8.64454C60.042 8.64454 61.2033 8.9617 61.9198 9.59602C62.6363 10.2303 62.9945 11.2639 62.9945 12.6969C62.9945 13.3084 62.9283 14.0431 62.796 14.901C62.6089 16.0464 62.3624 17.0093 62.0567 17.7896C61.751 18.5609 61.3402 19.2043 60.8246 19.72C60.3226 20.2219 59.7179 20.5893 59.0106 20.822C58.3079 21.0502 57.4545 21.1643 56.4505 21.1643ZM54.8693 16.8998C54.8693 17.5888 55.0131 18.0634 55.3006 18.3236C55.5881 18.5837 56.0832 18.7137 56.786 18.7137C57.5252 18.7137 58.1071 18.5517 58.5315 18.2277C58.7505 18.0589 58.9376 17.8239 59.0928 17.5227C59.3939 16.9249 59.6358 16.051 59.8183 14.901C59.9461 14.107 60.01 13.4658 60.01 12.9775C60.01 12.2747 59.864 11.7842 59.5719 11.5058C59.289 11.2274 58.7961 11.0883 58.0934 11.0883C57.4454 11.0883 56.9365 11.1978 56.5669 11.4168C56.1973 11.6267 55.8961 12.0032 55.6634 12.5463C55.4352 13.0893 55.239 13.8742 55.0747 14.901C54.9378 15.7635 54.8693 16.4297 54.8693 16.8998ZM79.0675 8.90466L79.8273 4.09938H82.8118L80.6488 17.7212C80.5301 18.4741 80.375 19.2454 80.1833 20.0348C79.4714 20.4182 78.6819 20.7011 77.8149 20.8836C76.9204 21.0707 76.0466 21.1643 75.1932 21.1643C74.3353 21.1643 73.612 21.0936 73.0233 20.9521C72.4346 20.8106 71.9372 20.5847 71.5311 20.2744C70.7325 19.6538 70.3332 18.5837 70.3332 17.0641C70.3332 16.4069 70.397 15.6859 70.5248 14.901C70.7165 13.7099 70.9766 12.7174 71.3052 11.9234C71.6383 11.1248 72.065 10.4859 72.5852 10.0067C73.11 9.523 73.7124 9.1739 74.3923 8.95942C75.0677 8.7495 75.88 8.64454 76.8292 8.64454C77.5593 8.64454 78.3054 8.73125 79.0675 8.90466ZM77.0551 11.0403C75.8549 11.0403 74.9947 11.3552 74.4745 11.985C74.1276 12.4002 73.8652 13.0574 73.6873 13.9564C73.6416 14.18 73.5869 14.4948 73.523 14.901C73.4043 15.6631 73.345 16.2381 73.345 16.626C73.345 17.2785 73.491 17.7919 73.7831 18.1661C74.1162 18.5768 74.7118 18.7822 75.5697 18.7822C76.35 18.7822 76.9889 18.6749 77.4863 18.4605C77.6004 17.9859 77.7099 17.4405 77.8149 16.8245L78.6842 11.3073C78.164 11.1293 77.6209 11.0403 77.0551 11.0403ZM83.8411 14.901C84.019 13.7693 84.2609 12.8201 84.5667 12.0534C84.877 11.2822 85.2808 10.6388 85.7782 10.1231C86.2802 9.60742 86.8894 9.23322 87.6059 9.00049C88.3223 8.76319 89.1871 8.64454 90.2002 8.64454C91.8795 8.64454 93.0592 8.99136 93.7391 9.685C94.0723 10.0273 94.3141 10.4288 94.4647 10.8897C94.6153 11.3461 94.6906 11.896 94.6906 12.5394C94.6906 13.1144 94.6244 13.824 94.4921 14.6683C94.451 14.9831 94.3871 15.3094 94.3004 15.6471C93.6068 15.7749 92.6987 15.8958 91.5761 16.0099C90.4398 16.124 89.4313 16.2061 88.5505 16.2563L86.5654 16.359C86.5472 16.5552 86.5381 16.7104 86.5381 16.8245C86.5381 17.5592 86.7571 18.0657 87.1952 18.3441C87.6013 18.5996 88.2083 18.7274 89.016 18.7274C90.2025 18.7274 91.6536 18.6202 93.3695 18.4057L93.26 20.6988C91.3479 21.0091 89.5819 21.1643 87.9618 21.1643C86.3829 21.1643 85.258 20.7718 84.5872 19.9869C83.9711 19.2613 83.6631 18.2414 83.6631 16.9271C83.6631 16.3704 83.7224 15.695 83.8411 14.901ZM86.8119 14.2781L88.8791 14.1754C89.8648 14.1298 90.7729 14.0499 91.6034 13.9358C91.6445 13.8081 91.6787 13.6461 91.7061 13.4498C91.7518 13.1578 91.7746 12.9045 91.7746 12.69C91.7746 12.1059 91.6194 11.6747 91.3091 11.3963C90.9988 11.1134 90.5059 10.9719 89.8306 10.9719C88.8449 10.9719 88.1056 11.2822 87.6127 11.9028C87.4621 12.0991 87.3366 12.3249 87.2363 12.5805C87.0583 13.0551 86.9168 13.621 86.8119 14.2781ZM112.206 18.1798L112.097 20.6851C110.892 21.0046 109.502 21.1643 107.928 21.1643C105.915 21.1643 104.492 20.7695 103.657 19.9801C103.232 19.5739 102.922 19.072 102.726 18.4741C102.534 17.8763 102.438 17.1416 102.438 16.27C102.438 15.4258 102.541 14.3443 102.746 13.0254C102.91 11.9941 103.086 11.1362 103.273 10.4517C103.693 8.85446 104.275 7.64515 105.019 6.82374C105.621 6.16204 106.363 5.67376 107.243 5.35888C108.129 5.04401 109.217 4.88657 110.509 4.88657C112.051 4.88657 113.388 5.04857 114.52 5.37257L113.842 7.87104C112.788 7.68851 111.729 7.59724 110.666 7.59724C109.197 7.59724 108.115 7.97144 107.421 8.71984C106.942 9.24007 106.575 10.0569 106.319 11.1704C106.228 11.5537 106.116 12.1721 105.984 13.0254C105.788 14.2347 105.69 15.1223 105.69 15.6882C105.69 16.1445 105.74 16.5324 105.84 16.8519C105.941 17.1713 106.107 17.4542 106.34 17.7006C106.814 18.2026 107.681 18.4536 108.941 18.4536C110.023 18.4536 111.111 18.3623 112.206 18.1798ZM118.711 13.1076L117.458 21H114.501L115.911 12.0876C116.03 11.3347 116.185 10.5635 116.377 9.77399C117.088 9.39066 117.878 9.10773 118.745 8.92519C119.639 8.73809 120.513 8.64454 121.367 8.64454C121.796 8.64454 122.195 8.66508 122.565 8.70615L121.942 11.143C121.732 11.1111 121.447 11.0951 121.086 11.0951C120.716 11.0951 120.344 11.1293 119.97 11.1978C119.614 11.2571 119.304 11.3484 119.039 11.4716C118.93 11.8777 118.82 12.4231 118.711 13.1076ZM123.076 14.901C123.254 13.7693 123.494 12.8201 123.795 12.0534C124.101 11.2822 124.505 10.6388 125.007 10.1231C125.509 9.60742 126.118 9.23322 126.834 9.00049C127.551 8.76319 128.416 8.64454 129.429 8.64454C130.277 8.64454 130.994 8.73125 131.578 8.90466C132.167 9.07807 132.63 9.33818 132.968 9.685C133.305 10.0318 133.547 10.4357 133.693 10.8966C133.844 11.3575 133.919 11.9051 133.919 12.5394C133.919 13.1737 133.855 13.8833 133.727 14.6683C133.677 14.9603 133.613 15.2866 133.536 15.6471C132.851 15.7703 131.934 15.8935 130.784 16.0167C129.593 16.1354 128.593 16.2153 127.786 16.2563L125.794 16.359C125.776 16.5552 125.766 16.7104 125.766 16.8245C125.766 17.5592 125.985 18.0657 126.424 18.3441C126.83 18.5996 127.437 18.7274 128.244 18.7274C129.426 18.7274 130.88 18.6202 132.605 18.4057L132.488 20.6988C130.576 21.0091 128.813 21.1643 127.197 21.1643C125.951 21.1643 124.979 20.9133 124.281 20.4113C123.346 19.6949 122.885 18.5358 122.898 16.934C122.898 16.3271 122.958 15.6494 123.076 14.901ZM126.04 14.2781L128.107 14.1754C129.089 14.1298 129.999 14.0499 130.839 13.9358C130.88 13.8081 130.914 13.6461 130.941 13.4498C130.987 13.1578 131.01 12.9068 131.01 12.6969C131.01 12.1127 130.852 11.6792 130.537 11.3963C130.227 11.1134 129.734 10.9719 129.059 10.9719C128.073 10.9719 127.334 11.2822 126.841 11.9028C126.691 12.0991 126.565 12.3249 126.465 12.5805C126.287 13.0551 126.145 13.621 126.04 14.2781ZM131.037 3.67498H134.117L130.647 7.33712H128.374L131.037 3.67498ZM144.125 8.90466L144.885 4.09938H147.87L145.707 17.7212C145.588 18.4741 145.433 19.2454 145.241 20.0348C144.529 20.4182 143.74 20.7011 142.873 20.8836C141.978 21.0707 141.104 21.1643 140.251 21.1643C139.393 21.1643 138.67 21.0936 138.081 20.9521C137.492 20.8106 136.995 20.5847 136.589 20.2744C135.79 19.6538 135.391 18.5837 135.391 17.0641C135.391 16.4069 135.455 15.6859 135.583 14.901C135.774 13.7099 136.034 12.7174 136.363 11.9234C136.696 11.1248 137.123 10.4859 137.643 10.0067C138.168 9.523 138.77 9.1739 139.45 8.95942C140.126 8.7495 140.938 8.64454 141.887 8.64454C142.617 8.64454 143.363 8.73125 144.125 8.90466ZM142.113 11.0403C140.913 11.0403 140.053 11.3552 139.532 11.985C139.186 12.4002 138.923 13.0574 138.745 13.9564C138.7 14.18 138.645 14.4948 138.581 14.901C138.462 15.6631 138.403 16.2381 138.403 16.626C138.403 17.2785 138.549 17.7919 138.841 18.1661C139.174 18.5768 139.77 18.7822 140.628 18.7822C141.408 18.7822 142.047 18.6749 142.544 18.4605C142.658 17.9859 142.768 17.4405 142.873 16.8245L143.742 11.3073C143.222 11.1293 142.679 11.0403 142.113 11.0403ZM153.906 5.07823C153.906 5.27446 153.89 5.46612 153.858 5.65322C153.753 6.30123 153.557 6.74844 153.269 6.99487C152.977 7.24586 152.498 7.37135 151.832 7.37135C151.275 7.37135 150.878 7.28464 150.641 7.11124C150.408 6.93782 150.292 6.64577 150.292 6.23506C150.292 6.09359 150.31 5.89965 150.347 5.65322C150.452 5.01434 150.648 4.56941 150.935 4.31842C151.232 4.06287 151.711 3.9351 152.373 3.9351C152.925 3.9351 153.317 4.0218 153.55 4.19521C153.787 4.36862 153.906 4.66296 153.906 5.07823ZM151.175 21H148.184L150.114 8.80883H153.105L151.175 21ZM157.22 8.80883L157.685 5.85858L160.738 5.36573L160.191 8.80883H162.593L162.23 11.1156H159.821L158.822 17.42C158.799 17.6117 158.787 17.7486 158.787 17.8307C158.787 18.1821 158.885 18.4376 159.082 18.5974C159.278 18.7525 159.59 18.8301 160.019 18.8301C160.353 18.8301 160.69 18.8164 161.032 18.789L160.916 20.9521C160.14 21.0936 159.449 21.1643 158.842 21.1643C157.774 21.1643 156.987 20.9589 156.48 20.5482C155.974 20.1375 155.721 19.5055 155.721 18.6521C155.721 18.3738 155.748 18.0657 155.803 17.728L156.85 11.1156H154.906L155.269 8.80883H157.22ZM167.94 21.1643C166.325 21.1643 165.159 20.854 164.442 20.2333C163.73 19.6127 163.374 18.5837 163.374 17.1462C163.374 16.4936 163.443 15.7452 163.58 14.901C163.767 13.7464 164.013 12.7813 164.319 12.0055C164.625 11.2297 165.033 10.5863 165.544 10.0752C166.051 9.5732 166.656 9.21041 167.358 8.9868C168.061 8.75863 168.917 8.64454 169.925 8.64454C171.532 8.64454 172.693 8.9617 173.409 9.59602C174.126 10.2303 174.484 11.2639 174.484 12.6969C174.484 13.3084 174.418 14.0431 174.286 14.901C174.098 16.0464 173.852 17.0093 173.546 17.7896C173.241 18.5609 172.83 19.2043 172.314 19.72C171.812 20.2219 171.208 20.5893 170.5 20.822C169.797 21.0502 168.944 21.1643 167.94 21.1643ZM166.359 16.8998C166.359 17.5888 166.503 18.0634 166.79 18.3236C167.078 18.5837 167.573 18.7137 168.276 18.7137C169.015 18.7137 169.597 18.5517 170.021 18.2277C170.24 18.0589 170.427 17.8239 170.582 17.5227C170.884 16.9249 171.125 16.051 171.308 14.901C171.436 14.107 171.5 13.4658 171.5 12.9775C171.5 12.2747 171.354 11.7842 171.062 11.5058C170.779 11.2274 170.286 11.0883 169.583 11.0883C168.935 11.0883 168.426 11.1978 168.056 11.4168C167.687 11.6267 167.386 12.0032 167.153 12.5463C166.925 13.0893 166.729 13.8742 166.564 14.901C166.427 15.7635 166.359 16.4297 166.359 16.8998Z" fill="#002A8D"/>
<g clip-path="url(#clip0_632_2533)">
<path fill-rule="evenodd" clip-rule="evenodd" d="M197.996 19.0331C197.996 19.0331 197.868 19.6606 198.428 19.7125C198.712 19.7219 199.013 19.7219 199.33 19.7219C201.351 19.7219 203.2 18.9542 203.242 17.0687C203.28 15.3975 201.841 14.8938 200.107 14.8938H198.883L197.996 19.0331ZM207.166 17.1608C207.166 19.6618 205.135 22.9612 198.108 22.5551C197.284 22.5071 196.778 22.4368 196.035 22.2482C193.388 21.5751 194.319 18.3478 194.319 18.3478L197.012 5.85962C198.494 5.61011 200.156 5.45861 201.864 5.45861C205.622 5.45861 208.112 6.84437 208.112 9.43784C208.112 11.8661 205.844 13.1859 204.127 13.485C205.488 13.59 207.166 14.6751 207.166 17.1608ZM200.295 8.35859L199.616 11.576C199.616 11.576 199.447 12.2648 200.022 12.2648H200.815C202.854 12.2648 204.266 11.4394 204.301 9.98526C204.33 8.78576 203.331 8.26604 201.911 8.26604C201.263 8.26604 200.581 8.31173 200.295 8.35859ZM224.349 22.6002H222.118L225.656 5.95232C227.119 5.59895 228.658 5.52905 230.442 5.54467C234.795 5.56263 236.79 7.28341 236.79 10.283C236.79 13.0314 234.697 17.0755 228.676 17.0755C228.059 17.0755 227.529 17.0025 227.146 16.9759C227.146 16.9759 226.656 19.2906 226.364 20.6545C225.997 22.3666 224.92 22.6002 224.349 22.6002ZM229.188 8.47978L228.205 13.1216C228.205 13.1216 227.888 14.1083 229.02 14.1083C229.16 14.1146 229.311 14.1189 229.478 14.1189C232.009 14.0986 233.309 12.3731 233.309 10.5867C233.309 8.82924 232.147 8.397 230.749 8.397C230.035 8.397 229.499 8.43214 229.188 8.47978ZM213.288 15.2451C213.288 17.8729 214.748 19.5531 217.252 19.5531C218.283 19.5531 219.41 19.3723 220.93 18.2071L220.334 21.006C220.334 21.006 220.169 21.9345 219.182 22.2953C218.38 22.6097 217.534 22.7526 216.252 22.7526C212.68 22.7526 209.195 20.9142 209.195 15.4673C209.195 10.3721 212.318 5.19336 218.346 5.19336C219.529 5.19336 220.366 5.36751 221.436 5.72869C223.088 6.28549 223.288 7.22027 223.179 7.78058C223.067 8.35417 222.678 9.73251 222.678 9.73251C221.639 8.76259 219.83 8.48966 218.824 8.48966C214.97 8.48966 213.288 12.5353 213.288 15.2451ZM187.824 13.0699C186.477 11.5424 185.055 10.619 184.006 10.0926C184.006 10.0926 183.495 9.82752 183.228 9.67523C183.617 8.76077 184.129 8.10752 184.129 8.10752C184.201 8.00874 185.752 6.10326 187.117 6.77252C188.607 7.47341 188.759 10.6904 187.824 13.0699ZM243.186 13.0699C241.838 11.5424 240.416 10.619 239.367 10.0926C239.367 10.0926 238.856 9.82752 238.589 9.67523C238.978 8.76077 239.49 8.10752 239.49 8.10752C239.562 8.00874 241.113 6.10326 242.478 6.77252C243.968 7.47341 244.12 10.6904 243.186 13.0699Z" fill="#002A8D"/>
<path fill-rule="evenodd" clip-rule="evenodd" d="M192.448 15.5025C190.995 17.9284 187.032 20.6937 185.909 21.1083C183.724 22.0638 182.246 20.2919 182.12 20.106C181.712 19.5574 181.613 19.4415 181.416 19.0412C181.377 19.1076 185.609 17.0498 187.125 14.3877C188.767 12.1011 188.91 7.61586 187.116 6.77246C187.659 7.05789 188.936 7.82476 190.089 8.89893C191.24 9.91844 192.234 11.2554 192.213 11.2382C192.334 11.4104 193.775 13.2854 192.448 15.5025ZM247.574 11.2382C247.695 11.4104 249.136 13.2854 247.809 15.5025C246.357 17.9284 242.393 20.6937 241.27 21.1083C239.085 22.0638 237.607 20.2919 237.481 20.106C237.073 19.5574 236.974 19.4415 236.777 19.0412C236.739 19.1076 240.97 17.0498 242.486 14.3877C244.128 12.1011 244.271 7.61586 242.477 6.77246C243.02 7.05789 244.297 7.82476 245.45 8.89893C246.601 9.91844 247.595 11.2554 247.574 11.2382Z" fill="#FF7800"/>
</g>
<defs>
<clipPath id="clip0_632_2533">
<rect width="67.4074" height="18.3838" fill="white" transform="translate(181.222 4.80811)"/>
</clipPath>
</defs>
</svg>
