<svg width="219" height="28" viewBox="0 0 219 28" fill="none" xmlns="http://www.w3.org/2000/svg">
<g clip-path="url(#clip0_622_2552)">
<path d="M45.1127 15.8528C45.1127 16.636 44.9641 17.326 44.6695 17.9228C44.3736 18.5171 43.9757 19.0095 43.4758 19.3985C42.884 19.8619 42.2507 20.1918 41.577 20.3857C40.9021 20.5771 40.0295 20.6728 38.963 20.6728H34.4603V4.96875H38.6256C39.7424 4.96875 40.581 5.00652 41.1388 5.07955C41.6991 5.15384 42.2368 5.32887 42.7505 5.60336C43.3109 5.90555 43.7201 6.30218 43.9795 6.79199C44.2401 7.27928 44.3723 7.85345 44.3723 8.5145C44.3723 9.25362 44.1771 9.91593 43.7881 10.4989C43.3977 11.0806 42.8588 11.5377 42.1713 11.8689V11.9494C43.1044 12.2051 43.8284 12.6684 44.3421 13.3395C44.8546 14.0119 45.1127 14.8493 45.1127 15.8528ZM42.2015 8.81166C42.2015 8.43014 42.1373 8.10024 42.0102 7.82449C41.8855 7.54622 41.6815 7.32587 41.4007 7.1647C41.0608 6.97457 40.683 6.85747 40.2675 6.81717C39.8545 6.77436 39.2829 6.7517 38.5551 6.7517H36.5505V11.3501H38.9227C39.5762 11.3501 40.0585 11.3174 40.3682 11.2494C40.6767 11.1826 40.9953 11.0454 41.3252 10.8364C41.64 10.6324 41.8654 10.3654 42.0001 10.0355C42.1336 9.70439 42.2015 9.29517 42.2015 8.81166ZM42.9419 15.9384C42.9419 15.3479 42.855 14.8606 42.6851 14.4778C42.5163 14.0963 42.1751 13.7702 41.6626 13.5007C41.3327 13.327 40.9714 13.2161 40.5798 13.1683C40.1894 13.1192 39.6367 13.0928 38.9227 13.0928H36.5505V18.8899H38.2478C39.1607 18.8899 39.8809 18.8483 40.4085 18.7639C40.9348 18.6808 41.3982 18.5008 41.7986 18.225C42.194 17.9543 42.4836 17.6433 42.6649 17.2933C42.8487 16.9445 42.9419 16.4924 42.9419 15.9384Z" fill="#1B1918"/>
<path d="M53.6025 17.7714V14.5027C53.1316 14.5467 52.536 14.6059 51.8145 14.6789C51.0955 14.7532 50.5138 14.8565 50.0719 14.9862C49.5443 15.1511 49.1074 15.4017 48.7623 15.7366C48.4199 16.069 48.2486 16.5337 48.2486 17.1267C48.2486 17.8016 48.4375 18.3128 48.8178 18.6578C49.1968 19.0041 49.752 19.1766 50.4849 19.1766C51.1081 19.1766 51.6735 19.0406 52.1771 18.7686C52.6833 18.4979 53.1593 18.1643 53.6025 17.7714ZM53.6025 19.4184C53.4413 19.5367 53.2235 19.7029 52.9528 19.917C52.6833 20.1323 52.4227 20.3035 52.1721 20.4307C51.8196 20.612 51.4783 20.7505 51.1497 20.8488C50.8236 20.9482 50.3652 20.9998 49.7747 20.9998C49.2912 20.9998 48.8303 20.9067 48.3947 20.7228C47.9578 20.5428 47.575 20.2872 47.2463 19.9573C46.9303 19.6324 46.6759 19.232 46.4858 18.7586C46.2944 18.2864 46.1987 17.7853 46.1987 17.2577C46.1987 16.443 46.3712 15.7467 46.7175 15.1725C47.0625 14.5996 47.609 14.1438 48.3544 13.8076C49.0117 13.5067 49.7911 13.2977 50.6914 13.1831C51.5904 13.066 52.5612 12.9791 53.6025 12.9212V12.5434C53.6025 12.0813 53.5307 11.7061 53.391 11.4203C53.2525 11.1357 53.056 10.9154 52.8017 10.7605C52.5499 10.6006 52.2401 10.4923 51.875 10.4381C51.5085 10.3853 51.1321 10.3576 50.7468 10.3576C50.2897 10.3576 49.7508 10.4268 49.13 10.5641C48.5118 10.7026 47.8935 10.9002 47.2766 11.1584H47.1607V9.14878C47.5259 9.04175 48.0497 8.92591 48.7321 8.80125C49.4133 8.67408 50.0882 8.60986 50.7568 8.60986C51.5652 8.60986 52.2477 8.67408 52.8017 8.80125C53.3582 8.92591 53.8568 9.15507 54.2975 9.48623C54.7269 9.80857 55.048 10.2279 55.2595 10.7403C55.4698 11.2541 55.5768 11.8799 55.5768 12.6139V20.6725H53.6025V19.4184Z" fill="#1B1918"/>
<path d="M67.5988 20.6724H65.6144V13.9637C65.6144 13.4235 65.5867 12.9198 65.5338 12.4527C65.4834 11.9868 65.3839 11.6116 65.2366 11.3295C65.0755 11.0349 64.8501 10.8145 64.5617 10.6697C64.2721 10.5262 63.8793 10.4532 63.3832 10.4532C62.8896 10.4532 62.3796 10.5866 61.8571 10.8511C61.3333 11.113 60.8208 11.4567 60.3209 11.8785V20.6724H58.3416V8.89183H60.3209V10.2013C60.9115 9.67502 61.4957 9.26957 62.0737 8.98753C62.6503 8.70674 63.2585 8.56445 63.8969 8.56445C65.0578 8.56445 65.9644 8.94849 66.6167 9.71279C67.2701 10.4758 67.5988 11.5801 67.5988 13.0269V20.6724Z" fill="#1B1918"/>
<path d="M75.0501 20.9346C74.2442 20.9346 73.5026 20.8099 72.8289 20.5618C72.154 20.3138 71.5723 19.9361 71.0863 19.4286C70.6028 18.9224 70.2263 18.2841 69.9581 17.5147C69.6924 16.7466 69.5602 15.8413 69.5602 14.8C69.5602 13.7662 69.6974 12.8735 69.9732 12.1205C70.2515 11.3688 70.6229 10.7355 71.0863 10.2217C71.5484 9.70928 72.1263 9.31391 72.8188 9.03815C73.5126 8.75988 74.2568 8.62012 75.0501 8.62012C75.6973 8.62012 76.3218 8.71329 76.9237 8.89713C77.5243 9.07845 78.0594 9.28872 78.5303 9.5267V11.7529H78.4145C78.2735 11.6333 78.0909 11.4947 77.8705 11.3399C77.6514 11.1863 77.3832 11.0276 77.0647 10.8664C76.7927 10.7267 76.4691 10.6033 76.0977 10.4988C75.725 10.3917 75.3648 10.3376 75.0198 10.3376C73.9924 10.3376 73.1676 10.7279 72.5469 11.5061C71.9249 12.2817 71.6151 13.3809 71.6151 14.8C71.6151 16.1901 71.9148 17.2755 72.5167 18.0536C73.1173 18.8293 73.9521 19.2171 75.0198 19.2171C75.667 19.2171 76.2815 19.0849 76.8632 18.8192C77.4462 18.551 77.9637 18.2047 78.4145 17.7817H78.5303V20.0078C78.3352 20.0985 78.0896 20.2105 77.795 20.3402C77.4991 20.4712 77.2321 20.5694 76.9942 20.6324C76.6542 20.7293 76.3507 20.8036 76.0825 20.854C75.8169 20.9069 75.4719 20.9346 75.0501 20.9346Z" fill="#1B1918"/>
<path d="M90.0177 14.7897C90.0177 16.7716 89.5379 18.3027 88.5822 19.383C87.6253 20.4609 86.3523 20.9998 84.7645 20.9998C83.1251 20.9998 81.8357 20.4432 80.8964 19.3276C79.9596 18.2133 79.4912 16.701 79.4912 14.7897C79.4912 12.8191 79.9747 11.2892 80.9417 10.2013C81.9075 9.11092 83.183 8.56445 84.7645 8.56445C86.3523 8.56445 87.6253 9.10966 88.5822 10.1963C89.5379 11.2817 90.0177 12.8128 90.0177 14.7897ZM87.9728 14.7897C87.9728 13.2623 87.6933 12.1291 87.1367 11.39C86.5827 10.6483 85.7907 10.2769 84.7645 10.2769C83.7295 10.2769 82.9337 10.6483 82.3772 11.39C81.8194 12.1291 81.5411 13.2623 81.5411 14.7897C81.5411 16.2641 81.8194 17.3848 82.3772 18.1491C82.9337 18.9121 83.7295 19.2924 84.7645 19.2924C85.7844 19.2924 86.5739 18.9184 87.1317 18.1692C87.692 17.4213 87.9728 16.2943 87.9728 14.7897Z" fill="#1B1918"/>
<path d="M107.837 20.6724H105.857V19.4686C105.548 19.7305 105.281 19.9458 105.057 20.1133C104.831 20.282 104.567 20.4369 104.266 20.5767C103.984 20.7101 103.69 20.8146 103.39 20.8889C103.087 20.962 102.734 20.9997 102.332 20.9997C101.693 20.9997 101.1 20.8663 100.554 20.6018C100.01 20.3336 99.5479 19.9421 99.1689 19.4283C98.7823 18.9083 98.4826 18.2674 98.2724 17.5044C98.0633 16.7426 97.9601 15.8649 97.9601 14.8702C97.9601 13.8402 98.0923 12.9462 98.358 12.1908C98.6262 11.4328 98.9951 10.773 99.466 10.2114C99.8954 9.69891 100.414 9.29473 101.022 9.0026C101.629 8.71174 102.268 8.56442 102.936 8.56442C103.527 8.56442 104.039 8.63116 104.472 8.76085C104.908 8.8918 105.37 9.09452 105.857 9.36524V4.26318H107.837V20.6724ZM105.857 17.8015V11.0122C105.364 10.7742 104.922 10.6093 104.533 10.5186C104.142 10.4254 103.719 10.3776 103.264 10.3776C102.242 10.3776 101.443 10.7616 100.866 11.5259C100.292 12.289 100.005 13.3907 100.005 14.8299C100.005 16.2175 100.227 17.279 100.67 18.013C101.112 18.7459 101.823 19.111 102.8 19.111C103.32 19.111 103.844 18.9939 104.372 18.7585C104.898 18.5243 105.394 18.2044 105.857 17.8015Z" fill="#1B1918"/>
<path d="M115.804 20.9444C113.927 20.9444 112.469 20.4155 111.433 19.3578C110.398 18.3014 109.881 16.798 109.881 14.8501C109.881 12.9337 110.382 11.4076 111.387 10.2719C112.391 9.13485 113.705 8.56445 115.331 8.56445C116.062 8.56445 116.708 8.67148 117.27 8.88176C117.833 9.09329 118.325 9.42445 118.746 9.87396C119.168 10.3247 119.492 10.875 119.718 11.526C119.942 12.1744 120.055 12.9702 120.055 13.9133V14.9861H111.891C111.891 16.3598 112.235 17.4099 112.923 18.134C113.615 18.8567 114.568 19.2168 115.784 19.2168C116.22 19.2168 116.647 19.169 117.064 19.0708C117.483 18.9713 117.862 18.8429 118.202 18.688C118.557 18.5281 118.858 18.3707 119.103 18.2196C119.351 18.0697 119.557 17.9262 119.718 17.7915H119.834V19.9572C119.602 20.0479 119.312 20.1624 118.967 20.2997C118.625 20.4344 118.315 20.5427 118.041 20.622C117.654 20.7253 117.304 20.8046 116.993 20.8587C116.681 20.9154 116.284 20.9444 115.804 20.9444ZM118.126 13.4701C118.112 12.9375 118.048 12.4766 117.935 12.0901C117.824 11.7048 117.662 11.3774 117.451 11.1079C117.22 10.8133 116.921 10.5879 116.56 10.433C116.197 10.2794 115.748 10.2013 115.215 10.2013C114.688 10.2013 114.239 10.2807 113.87 10.4381C113.5 10.5967 113.164 10.8271 112.863 11.1281C112.567 11.4378 112.342 11.7803 112.188 12.1555C112.033 12.532 111.934 12.9702 111.891 13.4701H118.126Z" fill="#1B1918"/>
<path d="M130.815 20.6724H128.831V4.26318H130.815V20.6724Z" fill="#1B1918"/>
<path d="M140.293 17.7709V14.5022C139.822 14.5462 139.226 14.6054 138.505 14.6785C137.786 14.7527 137.204 14.856 136.762 14.9857C136.234 15.1506 135.797 15.4012 135.452 15.7361C135.11 16.0685 134.939 16.5332 134.939 17.1262C134.939 17.8011 135.128 18.3123 135.508 18.6574C135.887 19.0036 136.442 19.1761 137.175 19.1761C137.798 19.1761 138.364 19.0401 138.867 18.7682C139.373 18.4974 139.849 18.1638 140.293 17.7709ZM140.293 19.4179C140.131 19.5362 139.914 19.7024 139.643 19.9165C139.373 20.1318 139.113 20.3031 138.862 20.4302C138.51 20.6115 138.168 20.75 137.84 20.8483C137.514 20.9477 137.055 20.9994 136.465 20.9994C135.981 20.9994 135.52 20.9062 135.085 20.7223C134.648 20.5423 134.265 20.2867 133.936 19.9568C133.62 19.6319 133.366 19.2315 133.176 18.7581C132.984 18.2859 132.889 17.7848 132.889 17.2572C132.889 16.4425 133.061 15.7462 133.408 15.172C133.753 14.5991 134.299 14.1433 135.044 13.8071C135.702 13.5062 136.481 13.2972 137.381 13.1826C138.28 13.0655 139.251 12.9786 140.293 12.9207V12.5429C140.293 12.0808 140.221 11.7056 140.081 11.4198C139.943 11.1352 139.746 10.9149 139.492 10.76C139.24 10.6001 138.93 10.4918 138.565 10.4377C138.199 10.3848 137.822 10.3571 137.437 10.3571C136.98 10.3571 136.441 10.4263 135.82 10.5636C135.202 10.7021 134.584 10.8998 133.967 11.1579H133.851V9.14829C134.216 9.04126 134.74 8.92542 135.422 8.80077C136.103 8.67359 136.778 8.60938 137.447 8.60938C138.255 8.60938 138.938 8.67359 139.492 8.80077C140.048 8.92542 140.547 9.15458 140.988 9.48574C141.417 9.80808 141.738 10.2274 141.95 10.7398C142.16 11.2536 142.267 11.8794 142.267 12.6135V20.672H140.293V19.4179Z" fill="#1B1918"/>
<path d="M163.157 20.6728H160.815L153.88 7.13448V20.6728H151.926V4.96875H154.892L161.208 17.4041V4.96875H163.157V20.6728Z" fill="#1B1918"/>
<path d="M172.753 17.7714V14.5027C172.282 14.5467 171.686 14.6059 170.965 14.6789C170.246 14.7532 169.664 14.8565 169.222 14.9862C168.694 15.1511 168.257 15.4017 167.912 15.7366C167.57 16.069 167.399 16.5337 167.399 17.1267C167.399 17.8016 167.588 18.3128 167.968 18.6578C168.347 19.0041 168.902 19.1766 169.635 19.1766C170.258 19.1766 170.824 19.0406 171.327 18.7686C171.833 18.4979 172.309 18.1643 172.753 17.7714ZM172.753 19.4184C172.591 19.5367 172.374 19.7029 172.103 19.917C171.833 20.1323 171.573 20.3035 171.322 20.4307C170.97 20.612 170.628 20.7505 170.3 20.8488C169.974 20.9482 169.515 20.9998 168.925 20.9998C168.441 20.9998 167.98 20.9067 167.545 20.7228C167.108 20.5428 166.725 20.2872 166.396 19.9573C166.08 19.6324 165.826 19.232 165.636 18.7586C165.444 18.2864 165.349 17.7853 165.349 17.2577C165.349 16.443 165.521 15.7467 165.868 15.1725C166.213 14.5996 166.759 14.1438 167.504 13.8076C168.162 13.5067 168.941 13.2977 169.841 13.1831C170.74 13.066 171.711 12.9791 172.753 12.9212V12.5434C172.753 12.0813 172.681 11.7061 172.541 11.4203C172.402 11.1357 172.206 10.9154 171.952 10.7605C171.7 10.6006 171.39 10.4923 171.025 10.4381C170.659 10.3853 170.282 10.3576 169.897 10.3576C169.44 10.3576 168.901 10.4268 168.28 10.5641C167.662 10.7026 167.044 10.9002 166.427 11.1584H166.311V9.14878C166.676 9.04175 167.2 8.92591 167.882 8.80125C168.563 8.67408 169.238 8.60986 169.907 8.60986C170.715 8.60986 171.398 8.67408 171.952 8.80125C172.508 8.92591 173.007 9.15507 173.448 9.48623C173.877 9.80857 174.198 10.2279 174.41 10.7403C174.62 11.2541 174.727 11.8799 174.727 12.6139V20.6725H172.753V19.4184Z" fill="#1B1918"/>
<path d="M182.17 20.935C181.365 20.935 180.623 20.8104 179.949 20.5623C179.274 20.3143 178.693 19.9365 178.207 19.4291C177.723 18.9229 177.347 18.2845 177.078 17.5152C176.813 16.7471 176.681 15.8418 176.681 14.8005C176.681 13.7667 176.818 12.874 177.094 12.121C177.372 11.3693 177.743 10.736 178.207 10.2222C178.669 9.70977 179.247 9.31439 179.939 9.03864C180.633 8.76037 181.377 8.62061 182.17 8.62061C182.818 8.62061 183.442 8.71378 184.044 8.89762C184.645 9.07893 185.18 9.28921 185.651 9.52719V11.7534H185.535C185.394 11.6337 185.211 11.4952 184.991 11.3404C184.772 11.1867 184.504 11.0281 184.185 10.8669C183.913 10.7272 183.589 10.6038 183.218 10.4992C182.845 10.3922 182.485 10.3381 182.14 10.3381C181.113 10.3381 180.288 10.7284 179.667 11.5066C179.045 12.2822 178.735 13.3814 178.735 14.8005C178.735 16.1906 179.035 17.276 179.637 18.0541C180.238 18.8298 181.072 19.2176 182.14 19.2176C182.787 19.2176 183.402 19.0854 183.984 18.8197C184.567 18.5515 185.084 18.2052 185.535 17.7821H185.651V20.0083C185.456 20.099 185.21 20.211 184.915 20.3407C184.619 20.4717 184.353 20.5699 184.115 20.6328C183.775 20.7298 183.471 20.8041 183.203 20.8545C182.937 20.9073 182.592 20.935 182.17 20.935Z" fill="#1B1918"/>
<path d="M189.472 20.6726H187.488V8.89206H189.472V20.6726ZM189.608 6.92275H187.352V4.86279H189.608V6.92275Z" fill="#1B1918"/>
<path d="M202.062 14.7897C202.062 16.7715 201.582 18.3027 200.626 19.383C199.669 20.4608 198.396 20.9998 196.809 20.9998C195.169 20.9998 193.88 20.4432 192.941 19.3276C192.004 18.2133 191.535 16.701 191.535 14.7897C191.535 12.8191 192.019 11.2892 192.986 10.2013C193.952 9.11091 195.227 8.56444 196.809 8.56444C198.396 8.56444 199.669 9.10965 200.626 10.1963C201.582 11.2817 202.062 12.8128 202.062 14.7897ZM200.017 14.7897C200.017 13.2623 199.737 12.1291 199.181 11.39C198.627 10.6483 197.835 10.2769 196.809 10.2769C195.774 10.2769 194.978 10.6483 194.421 11.39C193.864 12.1291 193.585 13.2623 193.585 14.7897C193.585 16.2641 193.864 17.3848 194.421 18.1491C194.978 18.9121 195.774 19.2924 196.809 19.2924C197.829 19.2924 198.618 18.9184 199.176 18.1692C199.736 17.4213 200.017 16.2943 200.017 14.7897ZM200.123 2.99902L197.242 6.94267H195.67L197.559 2.99902H200.123Z" fill="#1B1918"/>
<path d="M213.334 20.6724H211.35V13.9637C211.35 13.4235 211.322 12.9198 211.269 12.4527C211.219 11.9868 211.119 11.6116 210.972 11.3295C210.811 11.0349 210.586 10.8145 210.297 10.6697C210.008 10.5262 209.615 10.4532 209.119 10.4532C208.625 10.4532 208.115 10.5866 207.593 10.8511C207.069 11.113 206.556 11.4567 206.056 11.8785V20.6724H204.077V8.89183H206.056V10.2013C206.647 9.67502 207.231 9.26957 207.809 8.98753C208.386 8.70674 208.994 8.56445 209.632 8.56445C210.793 8.56445 211.7 8.94849 212.352 9.71279C213.006 10.4758 213.334 11.5801 213.334 13.0269V20.6724Z" fill="#1B1918"/>
<path fill-rule="evenodd" clip-rule="evenodd" d="M4.67173 1.65359C10.1108 -1.36869 16.7518 0.442665 17.4971 4.37616C18.3781 9.02374 12.7117 15.7552 0.193115 19.9019C3.57646 17.6712 5.93394 15.6114 7.54918 13.7417C11.5239 9.14141 13.816 1.50876 4.67173 1.65359Z" fill="#E30016"/>
<mask id="mask0_622_2552" style="mask-type:luminance" maskUnits="userSpaceOnUse" x="11" y="8" width="18" height="21">
<path d="M11.0029 8.17432H28.7685V28.0771H11.0029V8.17432Z" fill="white"/>
</mask>
<g mask="url(#mask0_622_2552)">
<path fill-rule="evenodd" clip-rule="evenodd" d="M15.6433 9.82568C21.0834 6.80239 27.7243 8.61576 28.4686 12.5482C29.3496 17.1968 23.6842 23.9273 11.1656 28.076C14.549 25.8433 16.9055 23.7845 18.5217 21.9138C22.4964 17.3135 24.7875 9.68085 15.6433 9.82568Z" fill="#E30016"/>
</g>
</g>
<defs>
<clipPath id="clip0_622_2552">
<rect width="219" height="28" fill="white"/>
</clipPath>
</defs>
</svg>
