<svg width="1em" height="1em" viewBox="0 0 37 36" fill="none" xmlns="http://www.w3.org/2000/svg">
<path fill-rule="evenodd" clip-rule="evenodd" d="M24.3503 0.961875C22.4829 0.326251 20.531 0.00562511 18.5623 0.00562511V0C8.63429 0 0.5625 8.0775 0.5625 18C0.5625 27.9225 8.63429 36 18.5623 36C20.5366 36 22.4829 35.6794 24.3503 35.0438C25.5259 34.6387 26.1559 33.3619 25.7566 32.1862C25.3516 31.0106 24.0747 30.3806 22.8991 30.78C21.4985 31.2581 20.0416 31.5 18.5623 31.5C11.1205 31.5 5.06245 25.4419 5.06245 18C5.06245 10.5581 11.1205 4.5 18.5623 4.5C20.036 4.5 21.4985 4.74187 22.8991 5.22C24.0803 5.61937 25.3572 4.98938 25.7566 3.81375C26.1559 2.63813 25.5259 1.36125 24.3503 0.961875ZM26.7971 26.5444C27.6184 27.7762 29.2946 27.8944 30.2789 26.91V26.9156L34.7114 22.4831C36.427 20.7619 37.057 18.1575 36.1458 15.7387C35.8195 14.8669 35.2795 14.1019 34.6214 13.4437L30.2789 9.10125C29.3059 8.12813 27.6634 8.22937 26.8365 9.41062C26.1953 10.3219 26.3978 11.5875 27.1853 12.375L30.5658 15.7556H16.3123C15.0692 15.7556 14.0623 16.7625 14.0623 18.0056C14.0623 19.2487 15.0692 20.2556 16.3123 20.2556H30.5658L27.1346 23.6869C26.3753 24.4463 26.2009 25.65 26.7971 26.5444Z" fill="currentColor"/>
</svg>
