<svg width="1em" height="1em" viewBox="0 0 36 36" fill="none" xmlns="http://www.w3.org/2000/svg">
<path fill-rule="evenodd" clip-rule="evenodd" d="M33.5363 14.625C34.7794 14.5294 35.8538 15.4631 35.9438 16.7006L35.9494 16.7119C35.9831 17.2012 36 17.6119 36 18C36 27.9281 27.9225 36 18 36C8.0775 36 0 27.9281 0 18C0 8.07188 8.0775 0 18 0C19.5187 0 21.0375 0.19125 22.5 0.568125C23.7038 0.8775 24.4237 2.10375 24.1144 3.3075C23.805 4.51125 22.5788 5.23125 21.375 4.92188C20.2781 4.64062 19.1419 4.49437 18 4.49437C10.5581 4.49437 4.5 10.5525 4.5 17.9944C4.5 25.4362 10.5581 31.4944 18 31.4944C25.4419 31.4944 31.5 25.4362 31.5 17.9944C31.5 17.7188 31.4888 17.415 31.4606 17.0325C31.365 15.795 32.2988 14.715 33.5363 14.625ZM13.5 14.8218L16.3575 18.0843V18.0787C16.8919 18.6918 17.9494 18.6693 18.4613 18.0393L29.1881 4.75872C29.9644 3.79122 31.3819 3.63934 32.3494 4.42122C33.3169 5.19747 33.4688 6.61494 32.6869 7.58244L21.96 20.8631C20.8406 22.2524 19.1756 23.0456 17.3925 23.0456C15.6994 23.0456 14.085 22.3199 12.9712 21.0431L10.1137 17.7806C9.29812 16.8468 9.39375 15.4237 10.3275 14.6081C11.2613 13.7924 12.6844 13.8881 13.5 14.8218Z" fill="currentColor"/>
</svg>
