<svg width="1em" height="1em" viewBox="0 0 36 36" fill="none" xmlns="http://www.w3.org/2000/svg">
<path fill-rule="evenodd" clip-rule="evenodd" d="M19.1133 5.0594V2.24862C19.1133 1.65225 18.8764 1.08031 18.4547 0.658605C18.033 0.236909 17.4611 0 16.8647 0C16.2683 0 15.6963 0.236909 15.2747 0.658605C14.8529 1.08031 14.616 1.65225 14.616 2.24862V5.0594C14.616 5.65579 14.8529 6.22773 15.2747 6.6494C15.6963 7.07113 16.2683 7.30802 16.8647 7.30802C17.4611 7.30802 18.033 7.07113 18.4547 6.6494C18.8764 6.22773 19.1133 5.65579 19.1133 5.0594ZM7.21234 4.03067L9.46097 6.27928C9.66986 6.48823 9.83559 6.73626 9.94869 7.00918C10.0617 7.28216 10.1199 7.57471 10.1199 7.87018C10.1199 8.16565 10.0617 8.45819 9.94869 8.73118C9.83559 9.00416 9.66986 9.25218 9.46097 9.46108C9.25201 9.67003 9.00399 9.83576 8.73106 9.94881C8.45808 10.0619 8.16554 10.1201 7.87007 10.1201C7.5746 10.1201 7.28205 10.0619 7.00907 9.94881C6.73609 9.83576 6.48806 9.67003 6.27917 9.46108L4.03053 7.21246C3.6086 6.79056 3.37156 6.21829 3.37156 5.62156C3.37156 5.02487 3.6086 4.4526 4.03053 4.03067C4.45247 3.60874 5.02473 3.3717 5.62143 3.3717C6.21812 3.3717 6.79039 3.60874 7.21234 4.03067ZM18.7703 12.0076L32.099 15.7404C33.1389 16.0269 34.0669 16.6233 34.7597 17.4501C35.4524 18.2769 35.877 19.2949 35.9771 20.3689C36.0772 21.4429 35.8479 22.5219 35.3199 23.4625C34.7919 24.403 33.99 25.1606 33.021 25.6343L30.2102 27.0509L34.1959 31.0366C34.4048 31.2456 34.5705 31.4936 34.6836 31.7665C34.7966 32.0395 34.8549 32.3321 34.8549 32.6275C34.8549 32.923 34.7966 33.2155 34.6836 33.4885C34.5705 33.7615 34.4048 34.0095 34.1959 34.2184C33.987 34.4274 33.739 34.5931 33.466 34.7061C33.193 34.8192 32.9004 34.8774 32.605 34.8774C32.3096 34.8774 32.017 34.8192 31.744 34.7061C31.471 34.5931 31.223 34.4274 31.0141 34.2184L27.0284 30.2327L25.6118 33.0435C25.1326 34.0045 24.3735 34.7977 23.4345 35.3185C22.4954 35.8393 21.4207 36.0634 20.3517 35.9612C19.2828 35.8589 18.27 35.4351 17.4468 34.7457C16.6236 34.0562 16.0286 33.1335 15.7403 32.0991L12.0245 18.7535C11.7672 17.8189 11.7622 16.8327 12.0099 15.8955C12.2577 14.9583 12.7493 14.1034 13.4348 13.418C14.1202 12.7325 14.9751 12.2409 15.9123 11.9931C16.8495 11.7454 17.8357 11.7504 18.7703 12.0076ZM25.6005 24.302L31.0309 21.5868C31.1795 21.5136 31.3022 21.3971 31.3828 21.2525C31.4634 21.1079 31.4981 20.9422 31.4822 20.7774C31.4664 20.6126 31.4007 20.4566 31.294 20.33C31.1873 20.2035 31.0445 20.1124 30.8848 20.069L17.5561 16.3419C17.4095 16.3012 17.2554 16.295 17.1059 16.3236C16.9564 16.3522 16.8156 16.4149 16.6943 16.5068C16.573 16.5987 16.4745 16.7174 16.4066 16.8535C16.3386 16.9897 16.303 17.1397 16.3025 17.2919C16.3033 17.3814 16.3166 17.4703 16.3418 17.5561L20.0689 30.8848C20.1124 31.0446 20.2034 31.1873 20.33 31.294C20.4565 31.4007 20.6126 31.4664 20.7773 31.4823C20.9421 31.4981 21.1078 31.4635 21.2524 31.3828C21.397 31.3022 21.5136 31.1795 21.5867 31.031L24.3076 25.5949C24.5872 25.0354 25.0409 24.5817 25.6005 24.302ZM5.0594 19.1133H2.24862C1.65225 19.1133 1.08031 18.8764 0.658605 18.4547C0.236909 18.033 0 17.4611 0 16.8647C0 16.2683 0.236909 15.6963 0.658605 15.2747C1.08031 14.8529 1.65225 14.616 2.24862 14.616H5.0594C5.65579 14.616 6.22773 14.8529 6.6494 15.2747C7.07113 15.6963 7.30802 16.2683 7.30802 16.8647C7.30802 17.4611 7.07113 18.033 6.6494 18.4547C6.22773 18.8764 5.65579 19.1133 5.0594 19.1133ZM27.8042 5.155C28.5783 5.23279 29.3018 5.57584 29.8519 6.12598C30.4021 6.67616 30.7451 7.3996 30.8229 8.1738L30.9185 9.21941C30.9744 9.77594 31.2358 10.2917 31.6516 10.6659C32.0674 11.0402 32.6078 11.2459 33.1671 11.2432H33.392C33.6879 11.2151 33.9752 11.1286 34.2375 10.9887C34.4997 10.8489 34.7316 10.6585 34.9198 10.4285C35.108 10.1985 35.2487 9.93346 35.3338 9.64873C35.419 9.364 35.4468 9.06521 35.4158 8.76968L35.3089 7.72407C35.127 5.91596 34.3249 4.22656 33.039 2.94262C31.753 1.65867 30.0623 0.859317 28.2539 0.680236L27.2083 0.562184C26.913 0.532656 26.6148 0.561579 26.3307 0.6473C26.0466 0.733023 25.7821 0.873865 25.5524 1.06179C25.3228 1.24971 25.1323 1.48104 24.992 1.74255C24.8517 2.00407 24.7644 2.29066 24.7348 2.58594C24.7053 2.88124 24.7342 3.17946 24.8199 3.46358C24.9056 3.74769 25.0465 4.01214 25.2344 4.24182C25.4223 4.4715 25.6536 4.66193 25.9152 4.80221C26.1767 4.9425 26.4633 5.0299 26.7586 5.05943L27.8042 5.155ZM5.05937 26.7586L5.15493 27.8042C5.23495 28.5754 5.57826 29.2956 6.12705 29.8434C6.67588 30.3912 7.39668 30.7332 8.16807 30.8117L9.21368 30.9185C9.81007 30.9476 10.3705 31.2124 10.7716 31.6546C11.1727 32.0969 11.3818 32.6804 11.3527 33.2767C11.3236 33.8731 11.0588 34.4336 10.6166 34.8347C10.1743 35.2358 9.59083 35.4449 8.99443 35.4158H8.76957L7.72396 35.2977C5.91562 35.1187 4.22493 34.3193 2.93894 33.0354C1.65295 31.7514 0.850896 30.062 0.668931 28.2539L0.562124 27.2083C0.502486 26.6119 0.682198 26.0163 1.06173 25.5524C1.44125 25.0886 1.98951 24.7944 2.58588 24.7348C3.18226 24.6752 3.77789 24.8549 4.24176 25.2344C4.70563 25.6139 4.99973 26.1622 5.05937 26.7586Z" fill="currentColor"/>
</svg>
