<svg width="1em" height="1em" viewBox="0 0 36 36" fill="none" xmlns="http://www.w3.org/2000/svg">
<path d="M18 3.05274C14.8907 3.029 11.8315 3.837 9.13946 5.39305L6.66413 2.70395C6.27322 2.27871 5.72939 2.02619 5.15229 2.00192C4.57519 1.97766 4.01208 2.18364 3.58685 2.57455C3.16162 2.96547 2.9091 3.50929 2.88483 4.0864C2.86056 4.6635 3.06655 5.2266 3.45746 5.65183L5.62337 8.00339C3.92523 9.60593 2.46806 11.4459 1.29718 13.466C0.447741 14.9164 0 16.567 0 18.2479C0 19.9287 0.447741 21.5793 1.29718 23.0297C3.56435 26.9115 8.76253 33.4317 18 33.4317C21.1093 33.4555 24.1685 32.6475 26.8605 31.0914L29.3359 33.7805C29.7268 34.2058 30.2706 34.4583 30.8477 34.4826C31.4248 34.5068 31.9879 34.3008 32.4131 33.9099C32.8384 33.519 33.0909 32.9752 33.1152 32.3981C33.1394 31.821 32.9335 31.2579 32.5425 30.8326L30.3766 28.4811C32.0748 26.8785 33.5319 25.0386 34.7028 23.0185C35.5523 21.568 36 19.9175 36 18.2366C36 16.5557 35.5523 14.9052 34.7028 13.4547C32.4357 9.57298 27.2375 3.05274 18 3.05274ZM18 28.9311C11.0072 28.9311 6.9623 23.8061 5.17331 20.7457C4.73109 19.9855 4.49813 19.1217 4.49813 18.2422C4.49813 17.3628 4.73109 16.499 5.17331 15.7388C6.12311 14.1075 7.30358 12.622 8.67815 11.3282L23.6989 27.6429C21.9206 28.4963 19.9724 28.9367 18 28.9311ZM30.8267 20.7457C29.8769 22.377 28.6964 23.8625 27.3219 25.1563L12.3011 8.84163C14.0794 7.98817 16.0276 7.54776 18 7.55333C24.9928 7.55333 29.0377 12.6784 30.8267 15.7388C31.2689 16.499 31.5019 17.3628 31.5019 18.2422C31.5019 19.1217 31.2689 19.9855 30.8267 20.7457Z" fill="currentColor"/>
</svg>
