<svg width="1em" height="1em" viewBox="0 0 36 36" fill="none" xmlns="http://www.w3.org/2000/svg">
<path d="M0 13.1935V28.871C0 30.7189 0.7341 32.4912 2.0408 33.7979C3.34751 35.1046 5.11978 35.8387 6.96774 35.8387H29.0323C30.8802 35.8387 32.6525 35.1046 33.9592 33.7979C35.2659 32.4912 36 30.7189 36 28.871V7.96774C36 6.11978 35.2659 4.34751 33.9592 3.0408C32.6525 1.7341 30.8802 1 29.0323 1H6.96774C5.11978 1 3.34751 1.7341 2.0408 3.0408C0.7341 4.34751 0 6.11978 0 7.96774V13.1935ZM31.3548 28.871C31.3548 29.487 31.1101 30.0777 30.6746 30.5133C30.239 30.9489 29.6482 31.1936 29.0323 31.1936H6.96774C6.35176 31.1936 5.761 30.9489 5.32543 30.5133C4.88986 30.0777 4.64516 29.487 4.64516 28.871V16.9503L13.6626 21.4619C15.0097 22.1341 16.4945 22.484 18 22.484C19.5055 22.484 20.9903 22.1341 22.3374 21.4619L31.3548 16.9503V28.871ZM6.96774 5.64516H29.0323C29.6482 5.64516 30.239 5.88986 30.6746 6.32543C31.1101 6.761 31.3548 7.35176 31.3548 7.96774V11.7594L20.2587 17.3045C19.5554 17.6482 18.7828 17.8269 18 17.8269C17.2172 17.8269 16.4446 17.6482 15.7413 17.3045L4.64516 11.7594V7.96774C4.64516 7.35176 4.88986 6.761 5.32543 6.32543C5.761 5.88986 6.35176 5.64516 6.96774 5.64516Z" fill="currentColor"/>
</svg>
