<svg width="1em" height="1em" viewBox="0 0 36 36" fill="none" xmlns="http://www.w3.org/2000/svg">
<path d="M36 13.5C35.9978 11.6079 35.3144 9.77989 34.0749 8.35034C32.8354 6.92079 31.1227 5.98529 29.25 5.71499V2.25C29.25 1.65326 29.013 1.08097 28.591 0.65901C28.169 0.237053 27.5968 0 27 0C26.4033 0 25.831 0.237053 25.409 0.65901C24.9871 1.08097 24.75 1.65326 24.75 2.25V5.625H20.25V2.25C20.25 1.65326 20.013 1.08097 19.591 0.65901C19.1691 0.237053 18.5968 0 18 0C17.4033 0 16.831 0.237053 16.409 0.65901C15.9871 1.08097 15.75 1.65326 15.75 2.25V5.625H11.25V2.25C11.25 1.65326 11.013 1.08097 10.591 0.65901C10.1691 0.237053 9.59676 0 9.00003 0C8.40329 0 7.831 0.237053 7.40904 0.65901C6.98708 1.08097 6.75003 1.65326 6.75003 2.25V5.71499C4.87736 5.98529 3.16461 6.92079 1.92511 8.35034C0.685619 9.77989 0.00225304 11.6079 3.55481e-05 13.5V23.94C-0.00278964 24.7885 0.162811 25.6291 0.487241 26.4132C0.811672 27.1972 1.28848 27.9091 1.89003 28.5075L7.51503 34.1325C8.11281 34.727 8.82189 35.198 9.60173 35.5184C10.3816 35.8388 11.2169 36.0025 12.06 36H28.125C30.2136 36 32.2166 35.1703 33.6935 33.6934C35.1703 32.2166 36 30.2136 36 28.125V13.5ZM31.5 28.125C31.5 29.0201 31.1444 29.8785 30.5115 30.5115C29.8786 31.1444 29.0201 31.5 28.125 31.5H12.06C11.5466 31.4992 11.0539 31.2972 10.6875 30.9375L5.06253 25.3125C4.70002 24.9434 4.49787 24.4461 4.50003 23.9287V20.25H31.5V28.125ZM31.5 15.75H4.50003V13.5C4.50003 12.6049 4.85561 11.7464 5.48854 11.1135C6.12148 10.4806 6.97992 10.125 7.87503 10.125H28.125C29.0201 10.125 29.8786 10.4806 30.5115 11.1135C31.1444 11.7464 31.5 12.6049 31.5 13.5V15.75Z" fill="currentColor"/>
</svg>
