<svg width="1em" height="1em" viewBox="0 0 36 36" fill="none" xmlns="http://www.w3.org/2000/svg">
<path fill-rule="evenodd" clip-rule="evenodd" d="M36 28.125C36 32.4675 32.4675 36 28.125 36H7.875C3.5325 36 0 32.4675 0 28.125V13.5C0 9.73687 2.655 6.58687 6.1875 5.81063V2.25C6.1875 1.00688 7.19438 0 8.4375 0C9.68062 0 10.6875 1.00688 10.6875 2.25V5.625H15.75V2.25C15.75 1.00688 16.7569 0 18 0C19.2431 0 20.25 1.00688 20.25 2.25V5.625H25.3125V2.25C25.3125 1.00688 26.3194 0 27.5625 0C28.8056 0 29.8125 1.00688 29.8125 2.25V5.81063C33.345 6.58687 36 9.73687 36 13.5V28.125ZM7.875 10.125C6.01312 10.125 4.5 11.6381 4.5 13.5V28.125C4.5 29.9869 6.01312 31.5 7.875 31.5H28.125C29.9869 31.5 31.5 29.9869 31.5 28.125V13.5C31.5 11.6381 29.9869 10.125 28.125 10.125H7.875ZM25.875 24.75C25.875 25.9931 24.8681 27 23.625 27H12.375C11.1319 27 10.125 25.9931 10.125 24.75C10.125 23.5069 11.1319 22.5 12.375 22.5H23.625C24.8681 22.5 25.875 23.5069 25.875 24.75Z" fill="currentColor"/>
</svg>
