<svg width="1em" height="1em" viewBox="0 0 36 36" fill="none" xmlns="http://www.w3.org/2000/svg">
<path d="M0 28.125C0 30.2136 0.829686 32.2166 2.30653 33.6935C3.78338 35.1703 5.78642 36 7.875 36H28.125C30.2136 36 32.2166 35.1703 33.6935 33.6935C35.1703 32.2166 36 30.2136 36 28.125V13.5C35.9978 11.6079 35.3144 9.77989 34.0749 8.35034C32.8354 6.92079 31.1227 5.9853 29.25 5.715V2.25C29.25 1.65326 29.0129 1.08097 28.591 0.65901C28.169 0.237053 27.5967 0 27 0C26.4033 0 25.831 0.237053 25.409 0.65901C24.9871 1.08097 24.75 1.65326 24.75 2.25V5.625H20.25V2.25C20.25 1.65326 20.0129 1.08097 19.591 0.65901C19.169 0.237053 18.5967 0 18 0C17.4033 0 16.831 0.237053 16.409 0.65901C15.9871 1.08097 15.75 1.65326 15.75 2.25V5.625H11.25V2.25C11.25 1.65326 11.0129 1.08097 10.591 0.65901C10.169 0.237053 9.59674 0 9 0C8.40326 0 7.83097 0.237053 7.40901 0.65901C6.98705 1.08097 6.75 1.65326 6.75 2.25V5.715C4.87733 5.9853 3.16457 6.92079 1.92508 8.35034C0.685584 9.77989 0.0022175 11.6079 0 13.5V28.125ZM4.5 28.125V24.1875H10.125C10.5726 24.1875 11.0018 24.3653 11.3182 24.6818C11.6347 24.9982 11.8125 25.4274 11.8125 25.875V31.5H7.875C6.97989 31.5 6.12145 31.1444 5.48851 30.5115C4.85558 29.8785 4.5 29.0201 4.5 28.125ZM7.875 10.125H28.125C29.0201 10.125 29.8785 10.4806 30.5115 11.1135C31.1444 11.7464 31.5 12.6049 31.5 13.5V28.125C31.5 29.0201 31.1444 29.8785 30.5115 30.5115C29.8785 31.1444 29.0201 31.5 28.125 31.5H16.3125V25.875C16.3125 24.234 15.6606 22.6602 14.5002 21.4998C13.3398 20.3394 11.766 19.6875 10.125 19.6875H4.5V13.5C4.5 12.6049 4.85558 11.7464 5.48851 11.1135C6.12145 10.4806 6.97989 10.125 7.875 10.125Z" fill="currentColor"/>
</svg>
