<svg width="1em" height="1em" viewBox="0 0 36 36" fill="none" xmlns="http://www.w3.org/2000/svg">
<path fill-rule="evenodd" clip-rule="evenodd" d="M33.6935 33.6935C32.2166 35.1703 30.2136 36 28.125 36H7.875C5.78644 36 3.78339 35.1703 2.30654 33.6935C0.829688 32.2166 0 30.2136 0 28.125V13.5C0.00317573 11.707 0.618137 9.96874 1.74322 8.57261C2.86829 7.17649 4.43612 6.20612 6.1875 5.82188V2.25C6.1875 1.65326 6.42454 1.08097 6.84653 0.659008C7.26846 0.237054 7.84074 0 8.4375 0C9.03426 0 9.60654 0.237054 10.0285 0.659008C10.4505 1.08097 10.6875 1.65326 10.6875 2.25V5.625H15.75V2.25C15.75 1.65326 15.987 1.08097 16.409 0.659008C16.831 0.237054 17.4032 0 18 0C18.5968 0 19.169 0.237054 19.591 0.659008C20.013 1.08097 20.25 1.65326 20.25 2.25V5.625H25.3125V2.25C25.3125 1.65326 25.5495 1.08097 25.9715 0.659008C26.3935 0.237054 26.9657 0 27.5625 0C28.1593 0 28.7315 0.237054 29.1535 0.659008C29.5755 1.08097 29.8125 1.65326 29.8125 2.25V5.82188C31.5639 6.20612 33.1317 7.17649 34.2568 8.57261C35.3819 9.96874 35.9968 11.707 36 13.5V28.125C36 30.2136 35.1703 32.2166 33.6935 33.6935ZM4.5 13.5V28.125C4.5 29.0201 4.85558 29.8785 5.48852 30.5115C6.12146 31.1444 6.97989 31.5 7.875 31.5H28.125C29.0201 31.5 29.8785 31.1444 30.5115 30.5115C31.1444 29.8785 31.5 29.0201 31.5 28.125V13.5C31.5 12.6049 31.1444 11.7465 30.5115 11.1135C29.8785 10.4806 29.0201 10.125 28.125 10.125H7.875C6.97989 10.125 6.12146 10.4806 5.48852 11.1135C4.85558 11.7465 4.5 12.6049 4.5 13.5ZM14.4123 25.4967C13.8099 25.2466 13.2629 24.8801 12.8025 24.4181L10.7831 22.4044C10.361 21.9822 10.1238 21.4096 10.1238 20.8125C10.1238 20.2155 10.361 19.6428 10.7831 19.2206C11.2053 18.7985 11.778 18.5613 12.375 18.5613C12.9721 18.5613 13.5447 18.7985 13.9669 19.2206L16.3013 21.5606L16.6444 21.24L22.0331 15.8456C22.4553 15.4235 23.028 15.1863 23.625 15.1863C24.2221 15.1863 24.7947 15.4235 25.2169 15.8456C25.6391 16.2678 25.8763 16.8405 25.8763 17.4375C25.8763 18.0346 25.6391 18.6072 25.2169 19.0294L19.8225 24.4181C19.3622 24.8801 18.8151 25.2466 18.2128 25.4967C17.6105 25.7467 16.9647 25.8755 16.3125 25.8755C15.6603 25.8755 15.0146 25.7467 14.4123 25.4967Z" fill="currentColor"/>
</svg>
