<svg width="1em" height="1em" viewBox="0 0 36 37" fill="none" xmlns="http://www.w3.org/2000/svg">
<path d="M8.67862 0.739975C8.44483 0.955658 8.25937 1.21179 8.13283 1.49372C8.00629 1.77566 7.94116 2.07786 7.94116 2.38306C7.94116 2.68826 8.00629 2.99046 8.13283 3.27239C8.25937 3.55432 8.44483 3.81046 8.67862 4.02614L22.4327 16.7296C22.8053 17.0866 23.0134 17.5632 23.0134 18.0591C23.0134 18.555 22.8053 19.0316 22.4327 19.3887L8.67862 32.0921C8.2068 32.5279 7.94174 33.1189 7.94174 33.7352C7.94174 34.3515 8.2068 34.9425 8.67862 35.3783C9.15043 35.814 9.79035 36.0589 10.4576 36.0589C11.1248 36.0589 11.7648 35.814 12.2366 35.3783L25.9906 22.6748C27.3149 21.4502 28.0588 19.79 28.0588 18.0591C28.0588 16.3282 27.3149 14.6681 25.9906 13.4434L12.2366 0.739975C12.003 0.524048 11.7257 0.352749 11.4205 0.235878C11.1152 0.119007 10.788 0.0588531 10.4576 0.0588531C10.1272 0.0588531 9.79996 0.119007 9.49471 0.235878C9.18946 0.352749 8.91214 0.524048 8.67862 0.739975Z" fill="currentColor"/>
</svg>
