<svg width="14" height="15" viewBox="0 0 14 15" fill="none" xmlns="http://www.w3.org/2000/svg">
<g clip-path="url(#clip0_179676_567)">
<rect width="14" height="14" transform="translate(0 0.399902)" fill="white" fill-opacity="0.01"/>
<path d="M13.7351 3.79777C13.6512 3.70686 13.5516 3.63473 13.442 3.58552C13.3324 3.53632 13.2148 3.51099 13.0961 3.51099C12.9775 3.51099 12.8599 3.53632 12.7503 3.58552C12.6407 3.63473 12.541 3.70686 12.4572 3.79777L7.51695 9.14657C7.37809 9.29147 7.19275 9.37242 6.9999 9.37242C6.80704 9.37242 6.6217 9.29147 6.48284 9.14657L1.54263 3.79777C1.37316 3.61429 1.14331 3.51121 0.90365 3.51121C0.663987 3.51121 0.43414 3.61429 0.264673 3.79777C0.0952056 3.98126 0 4.23011 0 4.4896C0 4.74908 0.0952056 4.99794 0.264673 5.18142L5.20489 10.5302C5.68116 11.0452 6.32677 11.3345 6.9999 11.3345C7.67303 11.3345 8.31863 11.0452 8.7949 10.5302L13.7351 5.18142C13.8191 5.09061 13.8857 4.98276 13.9312 4.86405C13.9766 4.74534 14 4.6181 14 4.4896C14 4.36109 13.9766 4.23385 13.9312 4.11514C13.8857 3.99643 13.8191 3.88859 13.7351 3.79777Z" fill="#03191B"/>
</g>
<defs>
<clipPath id="clip0_179676_567">
<rect width="14" height="14" fill="white" transform="translate(0 0.399902)"/>
</clipPath>
</defs>
</svg>
