<svg width="1em" height="1em" viewBox="0 0 36 36" fill="none" xmlns="http://www.w3.org/2000/svg">
<path fill-rule="evenodd" clip-rule="evenodd" d="M18 35.9935C8.76542 35.9935 3.56884 29.4696 1.29677 25.5835V25.5947C0.447612 24.1446 0 22.4947 0 20.8144C0 19.134 0.447612 17.4839 1.29677 16.034C2.51768 13.925 4.05391 12.0151 5.8522 10.3706L3.79945 7.49682C3.61917 7.25724 3.48856 6.98414 3.41534 6.69332C3.34216 6.40262 3.32777 6.10016 3.37312 5.80384C3.41846 5.50741 3.52257 5.22305 3.67938 4.96753C3.83618 4.71201 4.04244 4.4904 4.28612 4.31575C4.52977 4.14096 4.80589 4.01683 5.09825 3.95038C5.3906 3.88393 5.69327 3.87651 5.98853 3.92882C6.28379 3.981 6.5656 4.09167 6.81739 4.25437C7.06923 4.41694 7.28604 4.62839 7.45504 4.87595L9.51341 7.75547C11.4454 6.69687 13.5628 6.01912 15.7504 5.75896V2.24959C15.7504 1.65301 15.9874 1.08072 16.4093 0.658922C16.8312 0.236987 17.4034 0 18 0C18.5966 0 19.1688 0.236987 19.5907 0.658922C20.0126 1.08072 20.2496 1.65301 20.2496 2.24959V5.75896C22.4364 6.01558 24.5537 6.68961 26.4866 7.74422L28.545 4.86469C28.8983 4.39525 29.4213 4.08261 30.0022 3.99377C30.583 3.90493 31.1755 4.0469 31.6531 4.3892C32.1306 4.73164 32.4553 5.24722 32.5576 5.82583C32.6599 6.40442 32.5317 7.00017 32.2006 7.48557L30.1534 10.3593C31.9485 12.0053 33.4827 13.9151 34.7032 16.0227C35.5524 17.4728 36 19.1228 36 20.8031C36 22.4834 35.5524 24.1336 34.7032 25.5835C32.4311 29.4696 27.2346 35.9935 18 35.9935ZM18 10.1232C11.0094 10.1232 6.96575 15.2467 5.17733 18.3061C4.73525 19.0661 4.50235 19.9296 4.50235 20.8087C4.50235 21.6879 4.73525 22.5514 5.17733 23.3114C6.96575 26.3708 11.0094 31.4943 18 31.4943C24.9906 31.4943 29.0343 26.3708 30.8227 23.3114C31.2648 22.5514 31.4976 21.6879 31.4976 20.8087C31.4976 19.9296 31.2648 19.0661 30.8227 18.3061C29.0343 15.2467 24.9906 10.1232 18 10.1232ZM22.0619 26.8877C20.8596 27.6911 19.446 28.1199 18 28.1199C16.061 28.1199 14.2013 27.3496 12.8302 25.9785C11.4591 24.6074 10.6888 22.7478 10.6888 20.8087C10.6888 19.3628 11.1176 17.9492 11.921 16.7469C12.7243 15.5445 13.8662 14.6075 15.2021 14.054C16.5381 13.5007 18.0081 13.356 19.4264 13.638C20.8446 13.9202 22.1473 14.6164 23.1698 15.6389C24.1923 16.6614 24.8886 17.9642 25.1707 19.3824C25.4528 20.8006 25.308 22.2706 24.7546 23.6066C24.2013 24.9425 23.2642 26.0844 22.0619 26.8877ZM19.5622 18.4707C19.0998 18.1616 18.5562 17.9967 18 17.9967C17.2542 17.9967 16.539 18.2931 16.0116 18.8203C15.4843 19.3477 15.188 20.0629 15.188 20.8087C15.188 21.3649 15.353 21.9086 15.6619 22.371C15.9709 22.8334 16.4101 23.1939 16.9239 23.4067C17.4377 23.6195 18.0032 23.6752 18.5486 23.5668C19.0941 23.4581 19.5951 23.1904 19.9884 22.7971C20.3816 22.4038 20.6495 21.9028 20.7579 21.3572C20.8665 20.8119 20.8108 20.2464 20.5979 19.7327C20.3851 19.2188 20.0247 18.7797 19.5622 18.4707Z" fill="currentColor"/>
</svg>
