<svg width="1em" height="1em" viewBox="0 0 36 36" fill="none" xmlns="http://www.w3.org/2000/svg">
<path fill-rule="evenodd" clip-rule="evenodd" d="M2.25101 4.5H12.9433C13.2418 4.5 13.5281 4.61851 13.7391 4.82945C13.9502 5.04053 14.0688 5.32658 14.0688 5.625V10.125C14.0688 10.4234 13.9502 10.7095 13.7391 10.9205C13.5281 11.1315 13.2418 11.25 12.9433 11.25H2.25101C1.65398 11.25 1.08147 11.487 0.659337 11.909C0.237136 12.3309 0 12.9033 0 13.5C0 14.0967 0.237136 14.6691 0.659337 15.091C1.08147 15.513 1.65398 15.75 2.25101 15.75H12.9433C13.6823 15.75 14.414 15.6046 15.0968 15.3218C15.7796 15.0392 16.4 14.6249 16.9225 14.1024C17.4451 13.5802 17.8596 12.96 18.1424 12.2776C18.4252 11.5951 18.5708 10.8637 18.5708 10.125V5.625C18.5708 4.13319 17.9779 2.70236 16.9225 1.64754C15.8672 0.592577 14.4358 0 12.9433 0H2.25101C1.65398 0 1.08147 0.23703 0.659337 0.659042C0.237136 1.08092 0 1.65331 0 2.25C0 2.84669 0.237136 3.41908 0.659337 3.84096C1.08147 4.26297 1.65398 4.5 2.25101 4.5ZM30.9514 11.0474V2.25C30.9514 1.65331 30.7142 1.08092 30.2921 0.659042C29.8699 0.23703 29.2974 0 28.7004 0C28.1034 0 27.5309 0.23703 27.1086 0.659042C26.6865 1.08092 26.4494 1.65331 26.4494 2.25V11.0474C24.9816 11.5257 23.7028 12.4558 22.796 13.7046C21.8891 14.9533 21.4008 16.4569 21.4008 18C21.4008 19.5431 21.8891 21.0467 22.796 22.2954C23.7028 23.5442 24.9816 24.4743 26.4494 24.9526V33.75C26.4494 34.3467 26.6865 34.9191 27.1086 35.341C27.5309 35.763 28.1034 36 28.7004 36C29.2974 36 29.8699 35.763 30.2921 35.341C30.7142 34.9191 30.9514 34.3467 30.9514 33.75V24.9526C32.4192 24.4743 33.698 23.5442 34.6048 22.2954C35.5116 21.0467 36 19.5431 36 18C36 16.4569 35.5116 14.9533 34.6048 13.7046C33.698 12.4558 32.4192 11.5257 30.9514 11.0474ZM28.7004 20.8125C28.1439 20.8125 27.5999 20.6476 27.1372 20.3384C26.6744 20.0294 26.3138 19.5902 26.1008 19.0762C25.8879 18.5624 25.8321 17.9969 25.9407 17.4514C26.0493 16.9058 26.3172 16.4046 26.7108 16.0112C27.1042 15.6179 27.6057 15.3501 28.1515 15.2416C28.6972 15.133 29.263 15.1887 29.7772 15.4016C30.2913 15.6144 30.7307 15.9749 31.04 16.4375C31.3491 16.9 31.5141 17.4437 31.5141 18C31.5141 18.746 31.2177 19.4613 30.69 19.9888C30.1624 20.5161 29.4466 20.8125 28.7004 20.8125ZM2.25101 31.5H12.9433C13.2418 31.5 13.5281 31.3815 13.7391 31.1705C13.9502 30.9595 14.0688 30.6734 14.0688 30.375V25.875C14.0688 25.5766 13.9502 25.2905 13.7391 25.0795C13.5281 24.8685 13.2418 24.75 12.9433 24.75H2.25101C1.65398 24.75 1.08147 24.513 0.659337 24.091C0.237136 23.6691 0 23.0967 0 22.5C0 21.9033 0.237136 21.3309 0.659337 20.909C1.08147 20.487 1.65398 20.25 2.25101 20.25H12.9433C14.4358 20.25 15.8672 20.8426 16.9225 21.8976C17.9779 22.9524 18.5708 24.3832 18.5708 25.875V30.375C18.5708 31.1137 18.4252 31.8451 18.1424 32.5276C17.8596 33.21 17.4451 33.8302 16.9225 34.3524C16.4 34.8749 15.7796 35.2892 15.0968 35.5718C14.414 35.8546 13.6823 36 12.9433 36H2.25101C1.65398 36 1.08147 35.763 0.659337 35.341C0.237136 34.9191 0 34.3467 0 33.75C0 33.1533 0.237136 32.5809 0.659337 32.159C1.08147 31.737 1.65398 31.5 2.25101 31.5Z" fill="currentColor"/>
</svg>
