<svg width="15" height="15" viewBox="0 0 15 15" fill="none" xmlns="http://www.w3.org/2000/svg">
<g clip-path="url(#clip0_179676_227)">
<rect width="14" height="14" transform="translate(0.183167 0.399902)" fill="white" fill-opacity="0.01"/>
<g clip-path="url(#clip1_179676_227)">
<path fill-rule="evenodd" clip-rule="evenodd" d="M8.71442 2.5874C8.71442 1.38209 9.6966 0.399902 10.9019 0.399902H11.9957C13.201 0.399902 14.1832 1.38209 14.1832 2.5874V3.8999C14.1832 5.10522 13.201 6.0874 11.9957 6.0874H10.9019C9.6966 6.0874 8.71442 5.10522 8.71442 3.8999V2.5874ZM11.9957 4.3374C12.2363 4.3374 12.4332 4.14053 12.4332 3.8999V2.5874C12.4332 2.34678 12.2363 2.1499 11.9957 2.1499H10.9019C10.6613 2.1499 10.4644 2.34678 10.4644 2.5874V3.8999C10.4644 4.14053 10.6613 4.3374 10.9019 4.3374H11.9957ZM3.68317 13.7437H2.37067C1.16535 13.7437 0.183167 12.7615 0.183167 11.5562V10.2437C0.183167 9.03834 1.16535 8.05615 2.37067 8.05615H3.68317C4.88848 8.05615 5.87067 9.03834 5.87067 10.2437V11.5562C5.87067 12.7615 4.88848 13.7437 3.68317 13.7437ZM2.37067 9.80615C2.13004 9.80615 1.93317 10.003 1.93317 10.2437V11.5562C1.93317 11.7968 2.13004 11.9937 2.37067 11.9937H3.68317C3.92379 11.9937 4.12067 11.7968 4.12067 11.5562V10.2437C4.12067 10.003 3.92379 9.80615 3.68317 9.80615H2.37067ZM14.1832 9.5874C14.1832 8.38209 13.201 7.3999 11.9957 7.3999H9.58942C8.3841 7.3999 7.40192 8.38209 7.40192 9.5874V12.2124C7.40192 13.4177 8.3841 14.3999 9.58942 14.3999H11.9957C13.201 14.3999 14.1832 13.4177 14.1832 12.2124V9.5874ZM12.4332 12.2124C12.4332 12.453 12.2363 12.6499 11.9957 12.6499H9.58942C9.34879 12.6499 9.15192 12.453 9.15192 12.2124V9.5874C9.15192 9.34678 9.34879 9.1499 9.58942 9.1499H11.9957C12.2363 9.1499 12.4332 9.34678 12.4332 9.5874V12.2124ZM5.21442 6.74365H2.37067C1.16535 6.74365 0.183167 5.76147 0.183167 4.55615V3.24365C0.183167 2.03834 1.16535 1.05615 2.37067 1.05615H5.21442C6.41973 1.05615 7.40192 2.03834 7.40192 3.24365V4.55615C7.40192 5.76147 6.41973 6.74365 5.21442 6.74365ZM2.37067 2.80615C2.13004 2.80615 1.93317 3.00303 1.93317 3.24365V4.55615C1.93317 4.79678 2.13004 4.99365 2.37067 4.99365H5.21442C5.45504 4.99365 5.65192 4.79678 5.65192 4.55615V3.24365C5.65192 3.00303 5.45504 2.80615 5.21442 2.80615H2.37067Z" fill="currentColor"/>
</g>
</g>
<defs>
<clipPath id="clip0_179676_227">
<rect width="14" height="14" fill="white" transform="translate(0.183167 0.399902)"/>
</clipPath>
<clipPath id="clip1_179676_227">
<rect width="14" height="14" fill="white" transform="translate(0.183167 0.399902)"/>
</clipPath>
</defs>
</svg>
