<svg width="15" height="15" viewBox="0 0 15 15" fill="none" xmlns="http://www.w3.org/2000/svg">
<g clip-path="url(#clip0_179676_212)">
<rect width="14" height="14" transform="translate(0.183167 0.399902)" fill="white" fill-opacity="0.01"/>
<g clip-path="url(#clip1_179676_212)">
<path fill-rule="evenodd" clip-rule="evenodd" d="M8.96815 0.951215L12.8006 3.56308C13.2271 3.85375 13.576 4.24428 13.8169 4.70066C14.0579 5.15704 14.1836 5.66543 14.1831 6.1815V11.7749C14.1831 12.4711 13.9066 13.1388 13.4143 13.6311C12.922 14.1233 12.2543 14.3999 11.5581 14.3999H2.80818C2.11198 14.3999 1.4443 14.1233 0.952021 13.6311C0.459742 13.1388 0.183181 12.4711 0.183181 11.7749V6.18807C0.181628 5.67088 0.306832 5.16117 0.547841 4.70357C0.788847 4.24597 1.13832 3.85439 1.56567 3.56308L5.39816 0.951215C5.92415 0.592044 6.54622 0.399902 7.18316 0.399902C7.82007 0.399902 8.44217 0.592044 8.96815 0.951215ZM12.1768 12.3936C12.3409 12.2295 12.4331 12.007 12.4331 11.7749V6.1815C12.4331 5.95044 12.3768 5.72287 12.2689 5.51854C12.161 5.31423 12.0049 5.13932 11.8141 5.00901L7.98159 2.39715C7.74646 2.23613 7.46812 2.14996 7.18316 2.14996C6.89817 2.14996 6.61986 2.23613 6.38472 2.39715L2.55224 5.00901C2.36142 5.13932 2.2053 5.31423 2.09742 5.51854C1.98953 5.72287 1.93316 5.95044 1.93317 6.1815V11.7749C1.93317 12.007 2.02536 12.2295 2.18945 12.3936C2.35355 12.5577 2.57611 12.6499 2.80818 12.6499H11.5581C11.7902 12.6499 12.0128 12.5577 12.1768 12.3936ZM4.99567 9.14991H9.37065C9.60269 9.14991 9.82525 9.24211 9.98936 9.40619C10.1534 9.5703 10.2456 9.79285 10.2456 10.0249C10.2456 10.257 10.1534 10.4795 9.98936 10.6436C9.82525 10.8077 9.60269 10.8999 9.37065 10.8999H4.99567C4.7636 10.8999 4.54104 10.8077 4.37693 10.6436C4.21285 10.4795 4.12067 10.257 4.12067 10.0249C4.12067 9.79285 4.21285 9.5703 4.37693 9.40619C4.54104 9.24211 4.7636 9.14991 4.99567 9.14991Z" fill="currentColor"/>
</g>
</g>
<defs>
<clipPath id="clip0_179676_212">
<rect width="14" height="14" fill="white" transform="translate(0.183167 0.399902)"/>
</clipPath>
<clipPath id="clip1_179676_212">
<rect width="14" height="14" fill="white" transform="translate(0.183167 0.399902)"/>
</clipPath>
</defs>
</svg>
