<svg width="1em" height="1em" viewBox="0 0 36 36" fill="none" xmlns="http://www.w3.org/2000/svg">
<path fill-rule="evenodd" clip-rule="evenodd" d="M2.30658 28.631C0.829744 27.1541 0 25.1511 0 23.0625V7.875C0 5.78644 0.829744 3.78341 2.30658 2.30651C3.78341 0.829676 5.78649 0 7.875 0H28.125C30.2136 0 32.2166 0.829676 33.6934 2.30651C35.1703 3.78341 36 5.78644 36 7.875V23.0625C36 25.1511 35.1703 27.1541 33.6934 28.631C32.2166 30.1078 30.2136 30.9375 28.125 30.9375H25.2618L23.3663 33.3731C22.731 34.1909 21.9173 34.8526 20.9872 35.3078C20.0572 35.7631 19.0354 35.9997 18 35.9997C16.9646 35.9997 15.9428 35.7631 15.0128 35.3078C14.0825 34.8526 13.269 34.1909 12.6337 33.3731L10.738 30.9375H7.875C5.78649 30.9375 3.78341 30.1078 2.30658 28.631ZM5.48849 5.48849C4.85568 6.12146 4.5 6.97989 4.5 7.875V23.0625C4.5 23.9576 4.85568 24.816 5.48849 25.449C6.12158 26.0819 6.97989 26.4375 7.875 26.4375H11.8125C12.1638 26.4409 12.5098 26.5231 12.8252 26.6778C12.9993 26.7632 13.1613 26.8694 13.3083 26.9938C13.4278 27.095 13.5373 27.2082 13.6351 27.3319L16.1831 30.6112C16.3982 30.8881 16.6737 31.1122 16.9887 31.2663C17.3035 31.4204 17.6496 31.5006 18 31.5006C18.3504 31.5006 18.6965 31.4204 19.0113 31.2663C19.3263 31.1122 19.6018 30.8881 19.8169 30.6112L22.3706 27.3263C22.588 27.052 22.8639 26.8298 23.1784 26.676C23.4928 26.5222 23.8376 26.4407 24.1875 26.4375H28.125C29.0201 26.4375 29.8785 26.0819 30.5115 25.449C31.1444 24.816 31.5 23.9576 31.5 23.0625V7.875C31.5 6.97989 31.1444 6.12146 30.5115 5.48849C29.8785 4.85555 29.0201 4.5 28.125 4.5H7.875C6.97989 4.5 6.12158 4.85555 5.48849 5.48849ZM14.625 11.8125C14.625 13.0551 13.6176 14.0625 12.375 14.0625C11.1324 14.0625 10.125 13.0551 10.125 11.8125C10.125 10.5699 11.1324 9.5625 12.375 9.5625C13.6176 9.5625 14.625 10.5699 14.625 11.8125ZM23.625 14.0625C24.8677 14.0625 25.875 13.0551 25.875 11.8125C25.875 10.5699 24.8677 9.5625 23.625 9.5625C22.3823 9.5625 21.375 10.5699 21.375 11.8125C21.375 13.0551 22.3823 14.0625 23.625 14.0625ZM15.4171 22.5573C14.5967 22.2167 13.8516 21.7173 13.2245 21.0881H13.2358C12.8136 20.6659 12.5763 20.0933 12.5763 19.4962C12.5763 18.8992 12.8136 18.3265 13.2358 17.9044C13.658 17.4821 14.2306 17.245 14.8277 17.245C15.4245 17.245 15.9972 17.4821 16.4193 17.9044C16.6283 18.1136 16.8766 18.2795 17.1497 18.3927C17.4229 18.5059 17.7157 18.5642 18.0112 18.5642C18.1901 18.5642 18.3678 18.5429 18.5405 18.501C18.6537 18.4736 18.7649 18.4375 18.8729 18.3927C19.1462 18.2795 19.3942 18.1136 19.6032 17.9044C20.0253 17.4821 20.598 17.245 21.1951 17.245C21.7922 17.245 22.3647 17.4821 22.787 17.9044C23.2091 18.3265 23.4464 18.8992 23.4464 19.4962C23.4464 20.0933 23.2091 20.6659 22.787 21.0881C22.1599 21.7173 21.4147 22.2167 20.5941 22.5573C19.7737 22.898 18.894 23.0734 18.0058 23.0734C17.1173 23.0734 16.2375 22.898 15.4171 22.5573Z" fill="currentColor"/>
</svg>
