<svg width="1em" height="1em" viewBox="0 0 36 36" fill="none" xmlns="http://www.w3.org/2000/svg">
<path fill-rule="evenodd" clip-rule="evenodd" d="M33.2081 16.123C34.1243 17.3039 34.6226 18.7554 34.625 20.25V29.25C34.625 31.0402 33.9138 32.7571 32.648 34.023C31.3821 35.2889 29.6652 36 27.875 36H8.75C6.95978 36 5.24289 35.2889 3.97702 34.023C2.71116 32.7571 2 31.0402 2 29.25V20.25C2.00237 18.7554 2.5007 17.3039 3.41693 16.123C4.33312 14.9421 5.61533 14.0986 7.0625 13.7249V11.25C7.0625 8.26628 8.24774 5.40486 10.3575 3.29507C12.4673 1.18529 15.3288 0 18.3125 0C21.2962 0 24.1577 1.18529 26.2675 3.29507C28.3773 5.40486 29.5625 8.26628 29.5625 11.25V13.7249C31.0097 14.0986 32.2919 14.9421 33.2081 16.123ZM23.0855 6.47696C21.8196 5.21123 20.1027 4.5 18.3125 4.5C16.5223 4.5 14.8054 5.21123 13.5395 6.47696C12.2737 7.74287 11.5625 9.45979 11.5625 11.25V13.5H25.0625V11.25C25.0625 9.45979 24.3513 7.74287 23.0855 6.47696ZM6.5 20.25V29.25C6.5 29.8467 6.73707 30.4191 7.15901 30.841C7.58095 31.263 8.15324 31.5 8.75 31.5H27.875C28.4718 31.5 29.044 31.263 29.466 30.841C29.888 30.4191 30.125 29.8467 30.125 29.25V20.25C30.125 19.6533 29.888 19.0809 29.466 18.659C29.044 18.237 28.4718 18 27.875 18H8.75C8.15324 18 7.58095 18.237 7.15901 18.659C6.73707 19.0809 6.5 19.6533 6.5 20.25ZM20.5625 24.75C20.5625 25.9927 19.5552 27 18.3125 27C17.0698 27 16.0625 25.9927 16.0625 24.75C16.0625 23.5073 17.0698 22.5 18.3125 22.5C19.5552 22.5 20.5625 23.5073 20.5625 24.75Z" fill="currentColor"/>
</svg>
