<svg width="1em" height="1em" viewBox="0 0 36 36" fill="none" xmlns="http://www.w3.org/2000/svg">
<path fill-rule="evenodd" clip-rule="evenodd" d="M19.5522 35.2218C19.0522 35.7218 18.3739 36.0028 17.6666 36.0028C16.9595 36.0028 16.2811 35.7218 15.781 35.2218C15.281 34.7217 15 34.0434 15 33.3361V20.3361H2.66663C1.95947 20.3361 1.28113 20.0552 0.781006 19.5551C0.281006 19.055 0 18.3767 0 17.6695C0 16.9622 0.281006 16.2839 0.781006 15.7838C1.28113 15.2838 1.95947 15.0028 2.66663 15.0028H15V2.66948C15 1.96223 15.281 1.28395 15.781 0.783855C16.2811 0.283758 16.9595 0.00280762 17.6666 0.00280762C18.3739 0.00280762 19.0522 0.283758 19.5522 0.783855C20.0524 1.28395 20.3334 1.96223 20.3334 2.66948V15.0028H33.3334C34.0405 15.0028 34.7189 15.2838 35.219 15.7838C35.719 16.2839 36 16.9622 36 17.6695C36 18.3767 35.719 19.055 35.219 19.5551C34.7189 20.0552 34.0405 20.3361 33.3334 20.3361H20.3334V33.3361C20.3334 34.0434 20.0524 34.7217 19.5522 35.2218Z" fill="currentColor"/>
</svg>
