<svg width="1em" height="1em" viewBox="0 0 36 36" fill="none" xmlns="http://www.w3.org/2000/svg">
<g clip-path="url(#clip0_63_12)">
<path fill-rule="evenodd" clip-rule="evenodd" d="M33.4286 5.50281H2.57143C1.88942 5.50281 1.23541 5.2319 0.753191 4.74966C0.270892 4.26742 0 3.61336 0 2.93138C0 2.24941 0.270892 1.59535 0.753191 1.11311C1.23541 0.630866 1.88942 0.359955 2.57143 0.359955H33.4286C34.1106 0.359955 34.7646 0.630866 35.2468 1.11311C35.7291 1.59535 36 2.24941 36 2.93138C36 3.61336 35.7291 4.26742 35.2468 4.74966C34.7646 5.2319 34.1106 5.50281 33.4286 5.50281ZM2.57143 20.2885H33.4286C34.1106 20.2885 34.7646 20.0176 35.2468 19.5354C35.7291 19.0531 36 18.3991 36 17.7171C36 17.0351 35.7291 16.381 35.2468 15.8988C34.7646 15.4166 34.1106 15.1457 33.4286 15.1457H2.57143C1.88942 15.1457 1.23541 15.4166 0.753191 15.8988C0.270892 16.381 0 17.0351 0 17.7171C0 18.3991 0.270892 19.0531 0.753191 19.5354C1.23541 20.0176 1.88942 20.2885 2.57143 20.2885ZM2.57143 35.0742H33.4286C34.1106 35.0742 34.7646 34.8033 35.2468 34.3211C35.7291 33.8389 36 33.1848 36 32.5028C36 31.8208 35.7291 31.1668 35.2468 30.6846C34.7646 30.2023 34.1106 29.9314 33.4286 29.9314H2.57143C1.88942 29.9314 1.23541 30.2023 0.753191 30.6846C0.270892 31.1668 0 31.8208 0 32.5028C0 33.1848 0.270892 33.8389 0.753191 34.3211C1.23541 34.8033 1.88942 35.0742 2.57143 35.0742Z" fill="currentColor"/>
</g>
<defs>
<clipPath id="clip0_63_12">
<rect width="36" height="36" fill="white" transform="translate(0 0.00280762)"/>
</clipPath>
</defs>
</svg>
