<svg width="1em" height="1em" viewBox="0 0 36 36" fill="none" xmlns="http://www.w3.org/2000/svg">
<path d="M18 36C21.5601 36 25.0402 34.9443 28.0003 32.9665C30.9603 30.9886 33.2674 28.1774 34.6298 24.8883C35.9922 21.5992 36.3487 17.98 35.6541 14.4884C34.9596 10.9967 33.2453 7.78943 30.7279 5.27208C28.2106 2.75474 25.0033 1.04041 21.5116 0.345873C18.02 -0.348661 14.4008 0.00779906 11.1117 1.37018C7.82263 2.73255 5.01141 5.03966 3.03355 7.99974C1.05568 10.9598 0 14.4399 0 18C0 22.7739 1.89642 27.3523 5.27208 30.7279C8.64773 34.1036 13.2261 36 18 36ZM31.5 18C31.4977 20.4759 30.8146 22.9035 29.5254 25.0172C28.2361 27.131 26.3904 28.8495 24.1901 29.9847C21.9899 31.12 19.5198 31.6283 17.05 31.4541C14.5803 31.2799 12.206 30.4298 10.1869 28.9969L28.9969 10.1869C30.628 12.4653 31.5035 15.1979 31.5 18ZM18 4.50001C20.8021 4.49651 23.5347 5.37197 25.8131 7.00313L7.00312 25.8131C5.5702 23.794 4.72013 21.4197 4.5459 18.95C4.37168 16.4802 4.88 14.0101 6.01527 11.8099C7.15054 9.60958 8.86903 7.76388 10.9828 6.47464C13.0965 5.18541 15.5241 4.50229 18 4.50001Z" fill="currentColor"/>
</svg>
