<svg width="1em" height="1em" viewBox="0 0 14 15" fill="none" xmlns="http://www.w3.org/2000/svg">
<g clip-path="url(#clip0_179676_732)">
<rect width="14" height="14" transform="translate(-0.000976562 0.399902)" fill="none"/>
<g clip-path="url(#clip1_179676_732)">
<path d="M10.6532 9.80808C11.5373 8.60965 11.9357 7.1214 11.7687 5.64159C11.6017 4.16177 10.8816 2.79975 9.75271 1.8285C8.62382 0.85724 7.16956 0.34852 5.6814 0.404292C4.19324 0.460063 2.78114 1.07621 1.72811 2.12923C0.675084 3.18226 0.0589404 4.59436 0.00316852 6.08252C-0.0526034 7.57069 0.456117 9.02494 1.42737 10.1538C2.39863 11.2827 3.76065 12.0028 5.24046 12.1698C6.72027 12.3368 8.20853 11.9384 9.40695 11.0544L12.5052 14.1438C12.5864 14.2251 12.6829 14.2896 12.7891 14.3335C12.8952 14.3775 13.009 14.4001 13.124 14.4001C13.2389 14.4001 13.3527 14.3775 13.4588 14.3335C13.565 14.2896 13.6615 14.2251 13.7427 14.1438C13.824 14.0626 13.8884 13.9661 13.9324 13.8599C13.9764 13.7538 13.999 13.64 13.999 13.5251C13.999 13.4102 13.9764 13.2964 13.9324 13.1902C13.8884 13.084 13.824 12.9876 13.7427 12.9063L10.6532 9.80808ZM1.75432 6.30973C1.75432 5.48809 1.99796 4.6849 2.45444 4.00173C2.91092 3.31856 3.55973 2.78609 4.31883 2.47167C5.07792 2.15724 5.91321 2.07497 6.71907 2.23526C7.52492 2.39556 8.26514 2.79121 8.84613 3.3722C9.42712 3.95319 9.82278 4.69341 9.98307 5.49927C10.1434 6.30512 10.0611 7.14041 9.74667 7.89951C9.43224 8.6586 8.89977 9.30742 8.21661 9.76389C7.53344 10.2204 6.73025 10.464 5.9086 10.464C4.80682 10.464 3.75016 10.0263 2.97108 9.24725C2.192 8.46817 1.75432 7.41151 1.75432 6.30973Z" fill="currentColor"/>
</g>
</g>
<defs>
<clipPath id="clip0_179676_732">
<rect width="14" height="14" fill="white" transform="translate(-0.000976562 0.399902)"/>
</clipPath>
<clipPath id="clip1_179676_732">
<rect width="14" height="14" fill="white" transform="translate(-0.000976562 0.399902)"/>
</clipPath>
</defs>
</svg>
