<svg width="1em" height="1em" viewBox="0 0 12 13" fill="none" xmlns="http://www.w3.org/2000/svg">
<path fill-rule="evenodd" clip-rule="evenodd" d="M6.75 2.92505C6.75 1.47755 7.9275 0.300049 9.375 0.300049C10.8225 0.300049 12 1.47755 12 2.92505C12 4.37255 10.8225 5.55005 9.375 5.55005C7.9275 5.55005 6.75 4.37255 6.75 2.92505ZM8.25 2.92505C8.25 3.54567 8.75438 4.05005 9.375 4.05005C9.99563 4.05005 10.5 3.54567 10.5 2.92505C10.5 2.30442 9.99563 1.80005 9.375 1.80005C8.75438 1.80005 8.25 2.30442 8.25 2.92505ZM1.77187 5.55005C0.795 5.55005 0 4.75505 0 3.77817V2.0738C0 1.09693 0.795 0.301926 1.77187 0.301926H3.47625C4.45313 0.301926 5.24813 1.09693 5.24813 2.0738V3.77817C5.24813 4.75505 4.45313 5.55005 3.47625 5.55005H1.77187ZM1.77187 1.80193C1.62563 1.80193 1.5 1.92568 1.5 2.0738V3.77817C1.5 3.92442 1.62375 4.05005 1.77187 4.05005H3.47625C3.6225 4.05005 3.74813 3.9263 3.74813 3.77817V2.0738C3.74813 1.92755 3.62438 1.80193 3.47625 1.80193H1.77187ZM10.4831 7.79442C10.215 7.33505 9.71813 7.05005 9.1875 7.05005C8.65688 7.05005 8.16 7.33505 7.89188 7.79442L6.57938 10.0444C6.30938 10.5075 6.3075 11.0832 6.57375 11.5463C6.84 12.0113 7.33875 12.3 7.875 12.3H10.5C11.0363 12.3 11.5331 12.0113 11.8012 11.5463C12.0675 11.0813 12.0656 10.5057 11.7956 10.0425L10.4831 7.79255V7.79442ZM7.875 10.8L9.1875 8.55005L10.5 10.8H7.875ZM3.5925 9.5813L4.65563 10.6444C4.94813 10.9388 4.94813 11.4132 4.65563 11.7057C4.50938 11.8519 4.31813 11.925 4.125 11.925C3.93188 11.925 3.74063 11.8519 3.59438 11.7057L2.53125 10.6425L1.46813 11.7057C1.32188 11.8519 1.13063 11.925 0.9375 11.925C0.744375 11.925 0.553125 11.8519 0.406875 11.7057C0.114375 11.4113 0.114375 10.9369 0.406875 10.6444L1.47 9.5813L0.406875 8.51818C0.114375 8.2238 0.114375 7.74942 0.406875 7.45692C0.70125 7.16442 1.17563 7.16442 1.46813 7.45692L2.53125 8.52005L3.59438 7.45692C3.88875 7.16442 4.36313 7.16442 4.65563 7.45692C4.94813 7.7513 4.94813 8.22567 4.65563 8.51818L3.5925 9.5813Z" fill="currentColor"/>
</svg>
