<svg width="1em" height="1em" viewBox="0 0 16 17" fill="none" xmlns="http://www.w3.org/2000/svg">
<g clip-path="url(#clip0_179676_535)">
<rect width="16" height="16" transform="translate(-0.000976562 0.399902)" fill="none"/>
<g clip-path="url(#clip1_179676_535)">
<path fill-rule="evenodd" clip-rule="evenodd" d="M4.45402 3.0974C4.05652 1.5099 2.63652 0.399902 0.999023 0.399902C0.446523 0.399902 -0.000976562 0.847402 -0.000976562 1.3999C-0.000976562 1.9524 0.446523 2.3999 0.999023 2.3999C1.71652 2.3999 2.33902 2.8874 2.51402 3.5824L4.04402 9.7024C4.44152 11.2899 5.86152 12.3999 7.49902 12.3999H11.204C12.6965 12.3999 14.0415 11.4574 14.5515 10.0549L15.8615 6.4524C15.9515 6.2024 15.999 5.9399 15.999 5.6724C15.999 4.4174 14.979 3.3974 13.724 3.3974H4.52902L4.45402 3.0949V3.0974ZM13.724 5.3999C13.8765 5.3999 13.999 5.5224 13.999 5.6749C13.999 5.7074 13.994 5.7374 13.9815 5.7699L12.6715 9.3724C12.449 9.9874 11.859 10.3999 11.204 10.3999H7.49902C6.78152 10.3999 6.15902 9.9124 5.98402 9.2174L5.02902 5.3999H13.724ZM5.12402 16.3999C5.74535 16.3999 6.24902 15.8962 6.24902 15.2749C6.24902 14.6536 5.74535 14.1499 5.12402 14.1499C4.5027 14.1499 3.99902 14.6536 3.99902 15.2749C3.99902 15.8962 4.5027 16.3999 5.12402 16.3999ZM14.499 15.2749C14.499 15.8962 13.9953 16.3999 13.374 16.3999C12.7527 16.3999 12.249 15.8962 12.249 15.2749C12.249 14.6536 12.7527 14.1499 13.374 14.1499C13.9953 14.1499 14.499 14.6536 14.499 15.2749Z" fill="currentColor"/>
</g>
</g>
<defs>
<clipPath id="clip0_179676_535">
<rect width="16" height="16" fill="white" transform="translate(-0.000976562 0.399902)"/>
</clipPath>
<clipPath id="clip1_179676_535">
<rect width="16" height="16" fill="white" transform="translate(-0.000976562 0.399902)"/>
</clipPath>
</defs>
</svg>
