<svg width="1em" height="1em" viewBox="0 0 15 15" fill="none" xmlns="http://www.w3.org/2000/svg">
<g clip-path="url(#clip0_179676_220)">
<rect width="14" height="14" transform="translate(0.183167 0.399902)" fill="white" fill-opacity="0.01"/>
<g clip-path="url(#clip1_179676_220)">
<path d="M1.05817 14.3999H13.3082C13.5402 14.3999 13.7628 14.3077 13.9269 14.1436C14.091 13.9795 14.1832 13.757 14.1832 13.5249C14.1832 13.2928 14.091 13.0703 13.9269 12.9062C13.7628 12.7421 13.5402 12.6499 13.3082 12.6499H12.6519V8.25084C13.0569 7.98143 13.3887 7.61582 13.6178 7.18674C13.8468 6.75765 13.9659 6.27848 13.9644 5.79209C13.9673 5.31454 13.8935 4.83963 13.7457 4.38553L12.956 2.04271C12.7964 1.56568 12.4913 1.15065 12.0836 0.855983C11.676 0.56131 11.1862 0.401809 10.6832 0.399902H3.68317C3.17903 0.400438 2.68779 0.559304 2.2788 0.854072C1.86981 1.14884 1.56374 1.56462 1.40379 2.04271L0.620667 4.38553C0.472848 4.83963 0.398989 5.31454 0.401917 5.79209C0.400407 6.27848 0.519505 6.75765 0.748554 7.18674C0.977602 7.61582 1.30946 7.98143 1.71442 8.25084V12.6499H1.05817C0.826102 12.6499 0.603543 12.7421 0.439448 12.9062C0.275354 13.0703 0.183167 13.2928 0.183167 13.5249C0.183167 13.757 0.275354 13.9795 0.439448 14.1436C0.603543 14.3077 0.826102 14.3999 1.05817 14.3999ZM10.9019 12.6499H3.46442V8.7124C4.11223 8.66613 4.72386 8.39627 5.19473 7.94896L5.21442 7.93147C5.74394 8.43949 6.44935 8.72316 7.18317 8.72316C7.91698 8.72316 8.62239 8.43949 9.15192 7.93147L9.1716 7.94896C9.64248 8.39627 10.2541 8.66613 10.9019 8.7124V12.6499ZM2.28973 4.93896L3.07067 2.5874C3.11554 2.46045 3.19839 2.35037 3.30796 2.27211C3.41753 2.19385 3.54852 2.15118 3.68317 2.1499H10.6832C10.8189 2.14983 10.9514 2.19187 11.0623 2.27023C11.1731 2.34858 11.257 2.4594 11.3022 2.5874L12.0832 4.93021C12.1748 5.20531 12.2213 5.4934 12.221 5.78334C12.2297 6.07362 12.1284 6.35647 11.9373 6.57515C11.7462 6.79383 11.4795 6.93217 11.1907 6.9624C11.0413 6.97198 10.8915 6.95079 10.7506 6.90013C10.6097 6.84947 10.4807 6.77043 10.3716 6.66789C10.2625 6.56536 10.1756 6.44151 10.1163 6.30404C10.057 6.16656 10.0266 6.01837 10.0269 5.86865C10.0269 5.63659 9.93473 5.41403 9.77063 5.24993C9.60654 5.08584 9.38398 4.99365 9.15192 4.99365C8.91985 4.99365 8.69729 5.08584 8.5332 5.24993C8.3691 5.41403 8.27692 5.63659 8.27692 5.86865C8.27692 6.15873 8.16168 6.43693 7.95656 6.64205C7.75145 6.84717 7.47325 6.9624 7.18317 6.9624C6.89309 6.9624 6.61489 6.84717 6.40977 6.64205C6.20465 6.43693 6.08942 6.15873 6.08942 5.86865C6.08942 5.63659 5.99723 5.41403 5.83313 5.24993C5.66904 5.08584 5.44648 4.99365 5.21442 4.99365C4.98235 4.99365 4.75979 5.08584 4.5957 5.24993C4.4316 5.41403 4.33942 5.63659 4.33942 5.86865C4.33972 6.01837 4.30929 6.16656 4.25 6.30404C4.19071 6.44151 4.10382 6.56536 3.99473 6.66789C3.88563 6.77043 3.75664 6.84947 3.61575 6.90013C3.47487 6.95079 3.32508 6.97198 3.17567 6.9624C2.88956 6.93074 2.62572 6.79299 2.4362 6.57634C2.24668 6.35968 2.14524 6.07986 2.15192 5.79209C2.15159 5.50215 2.19812 5.21406 2.28973 4.93896Z" fill="currentColor"/>
</g>
</g>
<defs>
<clipPath id="clip0_179676_220">
<rect width="14" height="14" fill="white" transform="translate(0.183167 0.399902)"/>
</clipPath>
<clipPath id="clip1_179676_220">
<rect width="14" height="14" fill="white" transform="translate(0.183167 0.399902)"/>
</clipPath>
</defs>
</svg>
