<svg width="1em" height="1em" viewBox="0 0 36 36" fill="none" xmlns="http://www.w3.org/2000/svg">
<path fill-rule="evenodd" clip-rule="evenodd" d="M2.00003 27.7329C1.9976 28.6197 2.17123 29.4981 2.51086 30.3173C2.85049 31.1364 3.34936 31.88 3.97854 32.5049L5.73222 34.2867C6.82949 35.3837 8.31754 36 9.86911 36C11.4207 36 12.9087 35.3837 14.006 34.2867L14.0847 34.208L14.1634 34.2867C15.2607 35.3837 16.7487 36 18.3003 36C19.8518 36 21.3399 35.3837 22.4372 34.2867L22.5159 34.208L22.5945 34.2867C23.6918 35.3837 25.1799 36 26.7314 36C28.283 36 29.7711 35.3837 30.8683 34.2867L32.6276 32.5331C33.2571 31.9029 33.7556 31.1542 34.0942 30.3303C34.4328 29.5064 34.6049 28.6236 34.6005 27.7329V7.20583C34.599 5.29519 33.8394 3.46322 32.4883 2.11218C31.1373 0.761151 29.3053 0.00148863 27.3947 0H9.20586C7.29521 0.00148863 5.46324 0.761151 4.11221 2.11218C2.76118 3.46322 2.00151 5.29519 2.00003 7.20583V27.7329ZM6.49665 7.20583C6.49665 6.48731 6.78208 5.79821 7.29016 5.29013C7.79823 4.78205 8.48733 4.49662 9.20586 4.49662H27.3947C28.1132 4.49662 28.8023 4.78205 29.3104 5.29013C29.8185 5.79821 30.1039 6.48731 30.1039 7.20583V27.7329C30.1041 28.0282 30.0462 28.3207 29.9333 28.5937C29.8205 28.8666 29.655 29.1146 29.4463 29.3236L27.6926 31.0773C27.5667 31.204 27.4169 31.3047 27.252 31.3733C27.087 31.442 26.9101 31.4773 26.7314 31.4773C26.5528 31.4773 26.3758 31.442 26.2109 31.3733C26.0459 31.3047 25.8962 31.204 25.7703 31.0773L23.9548 29.2618C23.7658 29.0728 23.5415 28.9229 23.2946 28.8206C23.0477 28.7183 22.7831 28.6656 22.5159 28.6656C22.2486 28.6656 21.984 28.7183 21.7371 28.8206C21.4902 28.9229 21.2659 29.0728 21.0769 29.2618L19.2614 31.0773C19.1355 31.204 18.9858 31.3047 18.8208 31.3733C18.6559 31.442 18.4789 31.4773 18.3003 31.4773C18.1216 31.4773 17.9447 31.442 17.7797 31.3733C17.6148 31.3047 17.465 31.204 17.3391 31.0773L15.5236 29.2618C15.3347 29.0728 15.1103 28.9229 14.8634 28.8206C14.6166 28.7183 14.3519 28.6656 14.0847 28.6656C13.8175 28.6656 13.5528 28.7183 13.3059 28.8206C13.059 28.9229 12.8347 29.0728 12.6458 29.2618L10.8303 31.0773C10.7044 31.204 10.5546 31.3047 10.3897 31.3733C10.2247 31.442 10.0478 31.4773 9.86911 31.4773C9.69043 31.4773 9.51352 31.442 9.34857 31.3733C9.18361 31.3047 9.03386 31.204 8.90796 31.0773L7.15428 29.3236C6.94556 29.1146 6.78005 28.8666 6.66721 28.5937C6.55437 28.3207 6.49641 28.0282 6.49665 27.7329V7.20583ZM18.3002 17.7054C18.8965 17.7054 19.4684 17.4686 19.89 17.0469C20.3117 16.6253 20.5486 16.0534 20.5486 15.4571V10.3984C20.5486 9.80215 20.3117 9.23028 19.89 8.80864C19.4684 8.387 18.8965 8.15013 18.3002 8.15013C17.704 8.15013 17.1321 8.387 16.7105 8.80864C16.2888 9.23028 16.0519 9.80215 16.0519 10.3984V15.4571C16.0519 16.0534 16.2888 16.6253 16.7105 17.0469C17.1321 17.4686 17.704 17.7054 18.3002 17.7054ZM18.3002 21.0779C19.542 21.0779 20.5486 22.0845 20.5486 23.3262C20.5486 24.5679 19.542 25.5745 18.3002 25.5745C17.0585 25.5745 16.0519 24.5679 16.0519 23.3262C16.0519 22.0845 17.0585 21.0779 18.3002 21.0779Z" fill="currentColor"/>
</svg>
