<svg width="1em" height="1em" viewBox="0 0 36 36" fill="none" xmlns="http://www.w3.org/2000/svg">
<path fill-rule="evenodd" clip-rule="evenodd" d="M6.46871 4.692L8.1562 4.48387C8.74846 4.40928 9.28682 4.10247 9.6529 3.63094C10.0189 3.15941 10.1827 2.56177 10.1081 1.96951C10.0335 1.37725 9.72664 0.838888 9.25515 0.472843C8.78361 0.106795 8.18596 -0.0569423 7.59371 0.0176499L5.90622 0.225772C4.27464 0.431331 2.77423 1.22544 1.68673 2.45898C0.599222 3.69252 -0.000563937 5.28064 3.97871e-07 6.9251V28.2325C-0.000392275 29.8778 0.600178 31.4666 1.68883 32.7003C2.77749 33.934 4.27925 34.7275 5.91184 34.9318L7.59933 35.1399H7.88058C8.47733 35.1772 9.06441 34.976 9.51278 34.5804C9.96109 34.1848 10.2339 33.6273 10.2712 33.0306C10.3085 32.4338 10.1072 31.8468 9.71162 31.3984C9.31602 30.9501 8.75858 30.6773 8.16183 30.64L6.47434 30.4318C5.92759 30.363 5.42512 30.0959 5.06223 29.6811C4.69935 29.2664 4.50128 28.7329 4.5056 28.1819V6.9251C4.50524 6.37779 4.70437 5.84916 5.06573 5.43809C5.42709 5.02703 5.9259 4.76178 6.46871 4.692ZM30.088 0.225772L28.4005 0.0176499C27.8082 -0.0569423 27.2106 0.106795 26.739 0.472843C26.2675 0.838888 25.9607 1.37725 25.8861 1.96951C25.8115 2.56177 25.9753 3.15941 26.3413 3.63094C26.7073 4.10247 27.2457 4.40928 27.838 4.48387L29.5255 4.692C30.0722 4.76086 30.5747 5.02799 30.9376 5.4427C31.3004 5.85743 31.4985 6.3909 31.4942 6.94198V28.2325C31.4985 28.7836 31.3004 29.317 30.9376 29.7318C30.5747 30.1465 30.0722 30.4136 29.5255 30.4825L27.838 30.6906C27.2412 30.7279 26.6837 31.0007 26.2882 31.4491C25.8926 31.8974 25.6913 32.4845 25.7286 33.0812C25.7659 33.678 26.0387 34.2355 26.487 34.631C26.9354 35.0266 27.5225 35.2279 28.1192 35.1906H28.4005L30.088 34.9824C31.7292 34.7771 33.238 33.9763 34.3278 32.732C35.4176 31.4877 36.0126 29.8865 35.9998 28.2325V6.9251C36.0002 5.2798 35.3996 3.69097 34.311 2.4573C33.2223 1.22363 31.7205 0.430065 30.088 0.225772ZM13.4999 15.3289H22.4999C23.0966 15.3289 23.6689 15.5659 24.0908 15.9879C24.5128 16.4098 24.7499 16.9821 24.7499 17.5788C24.7499 18.1756 24.5128 18.7479 24.0908 19.1698C23.6689 19.5918 23.0966 19.8288 22.4999 19.8288H13.4999C12.9032 19.8288 12.3309 19.5918 11.909 19.1698C11.487 18.7479 11.2499 18.1756 11.2499 17.5788C11.2499 16.9821 11.487 16.4098 11.909 15.9879C12.3309 15.5659 12.9032 15.3289 13.4999 15.3289ZM22.4999 6.89141H13.4999C12.9032 6.89141 12.3309 7.12845 11.909 7.55043C11.487 7.97236 11.2499 8.54464 11.2499 9.1414C11.2499 9.73815 11.487 10.3104 11.909 10.7324C12.3309 11.1543 12.9032 11.3914 13.4999 11.3914H22.4999C23.0966 11.3914 23.6689 11.1543 24.0908 10.7324C24.5128 10.3104 24.7499 9.73815 24.7499 9.1414C24.7499 8.54464 24.5128 7.97236 24.0908 7.55043C23.6689 7.12845 23.0966 6.89141 22.4999 6.89141ZM13.4999 23.7663H22.4999C23.0966 23.7663 23.6689 24.0034 24.0908 24.4253C24.5128 24.8473 24.7499 25.4195 24.7499 26.0163C24.7499 26.6131 24.5128 27.1853 24.0908 27.6073C23.6689 28.0293 23.0966 28.2663 22.4999 28.2663H13.4999C12.9032 28.2663 12.3309 28.0293 11.909 27.6073C11.487 27.1853 11.2499 26.6131 11.2499 26.0163C11.2499 25.4195 11.487 24.8473 11.909 24.4253C12.3309 24.0034 12.9032 23.7663 13.4999 23.7663Z" fill="currentColor"/>
</svg>
