<svg width="1em" height="1em" viewBox="0 0 16 17" fill="none" xmlns="http://www.w3.org/2000/svg">
<path fill-rule="evenodd" clip-rule="evenodd" d="M10.1696 7.72298C9.51214 8.1623 8.73909 8.39682 7.94829 8.39682C6.88788 8.39682 5.87088 7.97555 5.12104 7.22574C4.37123 6.47592 3.94995 5.45889 3.94995 4.39849C3.94995 3.60766 4.18445 2.83468 4.6238 2.17712C5.06314 1.51961 5.6876 1.00713 6.4182 0.704523C7.1488 0.401853 7.95274 0.322723 8.72834 0.476956C9.50394 0.631249 10.2164 1.01207 10.7756 1.57123C11.3347 2.13038 11.7155 2.84285 11.8698 3.61848C12.0241 4.39404 11.9449 5.19795 11.6423 5.9286C11.3397 6.6592 10.8272 7.28364 10.1696 7.72298ZM9.05898 2.73621C8.73022 2.51657 8.3437 2.39931 7.94829 2.39931C7.41809 2.39931 6.9096 2.60992 6.53468 2.9849C6.15976 3.35979 5.94912 3.86826 5.94912 4.39849C5.94912 4.7939 6.06637 5.18039 6.28606 5.50917C6.50571 5.83794 6.81796 6.09418 7.18326 6.24549C7.54856 6.39681 7.95051 6.43639 8.33833 6.35922C8.72612 6.2821 9.08234 6.09168 9.36193 5.81207C9.64151 5.53254 9.83191 5.17629 9.90905 4.78852C9.98619 4.40068 9.94661 3.99875 9.7953 3.63343C9.64399 3.26816 9.38774 2.95591 9.05898 2.73621ZM1.73323 16.361C1.60595 16.3977 1.47264 16.4087 1.34106 16.3935C1.25911 16.385 1.17873 16.3664 1.10169 16.3384C1.0548 16.3213 1.00915 16.3007 0.965132 16.2767C0.848818 16.2132 0.74629 16.1272 0.6635 16.0237C0.580709 15.9202 0.519333 15.8013 0.482926 15.6739C0.446518 15.5464 0.435811 15.4131 0.451414 15.2815C0.615286 13.7991 1.32097 12.4294 2.43298 11.4354C3.54499 10.4415 4.98495 9.89333 6.47643 9.8962H9.4202C10.9117 9.89333 12.3516 10.4415 13.4636 11.4354C14.5756 12.4294 15.2813 13.7991 15.4452 15.2815C15.4608 15.4131 15.4501 15.5464 15.4137 15.6739C15.3773 15.8013 15.3159 15.9202 15.2331 16.0237C15.1503 16.1272 15.0478 16.2132 14.9315 16.2767C14.8152 16.3401 14.6874 16.3798 14.5556 16.3935C14.519 16.396 14.4822 16.396 14.4456 16.3935C14.1981 16.395 13.9589 16.3045 13.7742 16.1397C13.5896 15.9749 13.4726 15.7475 13.446 15.5013C13.3355 14.5106 12.8638 13.5952 12.1213 12.9301C11.3787 12.265 10.4171 11.8966 9.4202 11.8954H6.47643C5.47949 11.8966 4.51794 12.265 3.77535 12.9301C3.03276 13.5952 2.56115 14.5106 2.45058 15.5013C2.43724 15.6332 2.39781 15.761 2.3346 15.8774C2.27141 15.9939 2.18569 16.0966 2.08247 16.1796C1.97922 16.2626 1.86051 16.3243 1.73323 16.361Z" fill="currentColor"/>
</svg>
